<svg width="150" height="60" viewBox="0 0 150 60" fill="none" xmlns="http://www.w3.org/2000/svg">
<path d="M41.0602 23.1956C42.1737 22.7911 43.243 22.5872 44.4585 22.5872C46.4816 22.5872 47.8781 23.1194 48.5569 24.2472C49.0783 24.9301 49.2826 25.8355 49.2694 27.6591C49.2694 27.6591 49.2694 32.7515 49.2694 32.7888C49.2694 33.6151 49.9064 34.0426 50.5483 34.1755L49.2342 36.634C48.8113 36.5971 48.3539 36.4997 47.9279 36.3267C47.239 36.0468 46.6337 35.5717 46.3939 34.8421C46.1934 35.2083 45.9327 35.4774 45.6848 35.7262C45.0116 36.4116 43.9907 36.7231 43.0422 36.7231C40.4218 36.7231 38.6372 35.4359 38.6372 32.6537C38.6372 29.798 40.3957 28.4336 44.4335 28.231C44.5553 28.231 45.7461 28.1231 45.8798 28.1366V27.3287C45.8798 25.7223 45.5916 25.361 44.0548 25.361C42.802 25.361 41.7331 25.8508 40.1242 26.5776L39.1562 24.0829C39.8245 23.7348 40.2638 23.4835 41.0602 23.1956ZM44.8202 30.3912C42.7317 30.6331 42.0481 30.9954 42.0481 32.5145C42.0481 33.7735 42.7989 34.3659 43.7398 34.3659C44.7457 34.3659 45.3984 33.9893 45.8805 33.4623V30.2711L44.8202 30.3912Z" fill="white"/>
<path d="M55.0071 16.1135H51.606V36.374H55.0071V16.1135Z" fill="white"/>
<path d="M60.5129 16.1135H57.1128V36.374H60.5129V16.1135Z" fill="white"/>
<path d="M18 18.9104L22.3392 36.3741H26.2356L28.7015 23.9708L31.1478 36.3741H34.9328L39.3218 18.9104H35.7961L33.2241 31.8476L30.6681 18.9104H26.9381L24.3884 31.9475L21.8547 18.9104H18Z" fill="white"/>
<path d="M77.7112 23.1956C78.8261 22.7911 79.8923 22.5872 81.1099 22.5872C83.1319 22.5872 84.5295 23.1194 85.2079 24.2472C85.7265 24.9301 85.9326 25.8355 85.9204 27.6591C85.9204 27.6591 85.9204 32.7515 85.9204 32.7888C85.9204 33.6151 86.5588 34.0426 87.1993 34.1755L85.8852 36.634C85.4439 36.5958 84.9681 36.4917 84.5295 36.3055C83.8611 36.0232 83.2798 35.5546 83.0466 34.8425C82.8427 35.2086 82.5837 35.4777 82.3376 35.7266C81.6613 36.412 80.6421 36.7235 79.6936 36.7235C77.0728 36.7235 75.2886 35.4363 75.2886 32.6541C75.2886 29.7984 77.0471 28.4339 81.0845 28.2313C81.207 28.2313 82.3971 28.1234 82.5311 28.137V27.3291C82.5311 25.7227 82.2443 25.3614 80.7058 25.3614C79.4548 25.3614 78.3841 25.8511 76.7756 26.5779L75.8062 24.0832C76.4745 23.7348 76.9155 23.4835 77.7112 23.1956ZM81.4726 30.3912C79.3827 30.6331 78.6973 30.9954 78.6973 32.5145C78.6973 33.7735 79.4506 34.3659 80.3901 34.3659C81.3964 34.3659 82.049 33.9893 82.5308 33.4623V30.2711L81.4726 30.3912Z" fill="white"/>
<path d="M112.922 35.2769C111.689 36.1081 110.021 36.7374 108.074 36.7374C103.97 36.7374 101.464 34.1414 101.464 29.6884C101.464 27.3507 102.012 25.6889 103.103 24.4473C104.21 23.188 105.691 22.5781 107.54 22.5781C109.289 22.5781 110.714 23.1243 111.606 24.1146C112.691 25.3074 113.184 27.0583 113.184 29.5485C113.184 29.686 113.184 30.5778 113.184 30.6909H105.095C105.095 33.1153 106.594 33.9618 108.329 33.9618C109.678 33.9618 110.942 33.5744 112.137 32.9193L112.922 35.2769ZM109.519 28.3573V28.1213C109.519 26.2695 109.03 24.9903 107.31 24.9903C105.939 24.9903 105.046 25.7342 104.981 28.333L104.982 28.357H109.519V28.3573Z" fill="white"/>
<path d="M121.163 22.5928C121.794 22.5928 122.183 22.6711 122.627 22.8507L121.921 25.918C121.534 25.7784 121.094 25.6862 120.484 25.6862C119.531 25.6862 118.709 26.0214 117.964 26.642V36.3737H114.509V26.46C114.509 25.5932 114.411 23.4776 114.276 23.1145L116.961 22.7139C117.108 22.976 117.752 24.5845 117.777 24.9465C118.298 24.1118 119.005 23.3154 119.752 22.9241C120.158 22.7045 120.806 22.5928 121.163 22.5928Z" fill="white"/>
<path d="M65.1937 22.7258C65.4297 23.0788 65.8422 24.2835 65.854 24.4844C66.648 23.1561 68.2109 22.5901 69.4351 22.5901C70.4946 22.5901 71.4696 22.8922 72.2284 23.4265C73.6918 24.4499 74.593 26.3616 74.593 29.4094C74.593 32.2195 73.9866 34.1259 72.6016 35.4089C71.6906 36.2464 70.4751 36.7153 69.0626 36.7153C67.7218 36.7153 66.6869 36.261 65.9925 35.7393C65.9967 35.9777 66.0176 36.8002 66.0176 36.9878V41.083H62.6791V26.4601C62.6791 25.5933 62.6346 23.4777 62.4995 23.1146L65.1937 22.7258ZM68.3341 34.2523C69.2972 34.2523 69.9746 34.1256 70.3975 33.2801C70.7644 32.5477 70.9402 31.2525 70.9402 29.3436C70.9402 27.8949 70.763 26.8913 70.4132 26.2721C70.0529 25.6146 69.4424 25.3295 68.5857 25.3295C67.5836 25.3295 66.7896 25.6943 66.0308 26.3024V33.4301C66.5578 33.8206 67.3657 34.2523 68.3341 34.2523Z" fill="white"/>
<path d="M90.8815 22.7258C91.1168 23.0788 91.5313 24.2835 91.5428 24.4844C92.3368 23.1561 93.8997 22.5901 95.1228 22.5901C96.1849 22.5901 97.1577 22.8922 97.9162 23.4265C99.3799 24.4499 100.283 26.3616 100.283 29.4094C100.283 32.2195 99.673 34.1259 98.2901 35.4089C97.3798 36.2464 96.165 36.7153 94.7507 36.7153C93.4092 36.7153 92.3761 36.261 91.6813 35.7393C91.6855 35.9777 91.7078 36.8002 91.7078 36.9878V41.083H88.3676V26.4601C88.3676 25.5933 88.3248 23.4777 88.188 23.1146L90.8815 22.7258ZM94.0215 34.2523C94.9861 34.2523 95.6634 34.1256 96.0863 33.2801C96.4536 32.5477 96.6276 31.2525 96.6276 29.3436C96.6276 27.8949 96.4536 26.8913 96.102 26.2721C95.7404 25.6146 95.1312 25.3295 94.2732 25.3295C93.2703 25.3295 92.4785 25.6943 91.7182 26.3024V33.4301C92.2452 33.8206 93.0549 34.2523 94.0215 34.2523Z" fill="white"/>
<path d="M127.701 19.4952L130.162 20.8715L129.676 20.1924L132.936 19.1144L132.187 16.7697L128.91 17.8519V14.3933H126.55V17.8519L123.274 16.7697L122.523 19.1144L125.786 20.1924L123.78 22.9976L125.744 24.4473L127.73 21.6686L128.231 22.3703L127.878 20.4534L127.701 19.4952Z" fill="white"/>
<path d="M132.912 22.936L130.786 21.7476L128.322 20.3682L128.852 23.2385L129.29 25.6026L130.382 24.2489L131.817 26.2643L132.742 25.5814L131.298 23.5566L132.912 22.936Z" fill="white"/>
</svg>
