<svg width="150" height="60" viewBox="0 0 150 60" fill="none" xmlns="http://www.w3.org/2000/svg">
<path d="M116.277 26.782L115.508 26.9825C114.777 24.576 113.551 23.5451 111.822 23.5451C110.607 23.5451 109.746 24.3176 109.746 25.5505C109.746 26.7241 110.745 27.3554 113.462 28.4153C115.963 29.3036 117 30.391 117 32.2925C117 35.1855 114.648 37 110.784 37C108.926 37 106.821 36.5989 105.635 36.1406L105.486 32.1209L106.217 31.9775C107.314 34.7279 108.717 35.7685 110.545 35.7685C112.126 35.7685 112.956 34.7086 112.956 33.6197C112.956 32.5309 112.314 31.901 109.843 31.0424C107.49 30.2974 105.88 29.3237 105.88 26.9075C105.88 24.5307 108.044 22.5149 111.722 22.5149C113.462 22.5149 115.043 22.8016 116.081 23.2599L116.277 26.782ZM100.363 28.0424C100.452 26.1522 100.056 23.4211 98.4458 23.4211C96.7953 23.4211 95.8858 25.9709 95.8566 28.1576L100.363 28.0424ZM98.841 22.5045C102.892 22.5045 104.85 25.3693 104.88 29.1313H95.759C95.7282 32.464 97.5579 34.9842 100.977 34.9842C102.469 34.9842 103.33 34.5831 104.238 33.9532L104.664 34.4115C103.664 35.7292 101.589 36.9889 98.821 36.9889C94.3737 36.9889 91.2902 34.0387 91.2902 29.8748C91.2802 26.1128 93.8102 22.503 98.841 22.503V22.5045ZM85.6966 29.4737C85.6074 26.5027 84.482 24.1363 82.3163 24.1363C81.8013 24.1363 81.4069 24.2225 80.7942 24.423L80.971 35.8718C81.1886 35.9579 81.7013 36.0151 82.068 36.0151C84.1729 36.0151 85.6951 33.1407 85.6951 29.4745L85.6966 29.4737ZM90.2116 29.2516C90.2116 33.9592 87.1365 36.9955 81.9197 36.9955C80.0616 36.9955 78.1343 36.7088 76.4645 36.3367C76.6129 34.4464 76.6129 22.7392 76.4645 20.5333C76.3161 19.3872 75.9802 18.8428 75.0607 18.7284L74.448 18.6712V18.1461L80.8826 17C80.8518 17.9656 80.7934 20.5333 80.7934 23.5406C81.9204 22.9962 82.9575 22.6813 84.3605 22.6813C87.7108 22.6813 90.2031 25.4317 90.2031 29.2509L90.2116 29.2516ZM73.8284 26.6944C71.8419 25.4339 69.7078 25.9783 69.2819 26.6944C69.0943 28.9003 69.1335 32.2902 69.3127 34.0372C69.4018 35.1832 69.7378 35.6697 70.6565 35.7559L71.8711 35.8703V36.6153H62.782V35.8703L63.4839 35.7559C64.3634 35.6697 64.6701 35.184 64.7293 34.0372C64.9468 32.1751 65.006 28.2697 64.7293 26.121C64.6701 24.8895 64.3634 24.4305 63.4839 24.3161L62.782 24.2299V23.7144L69.275 22.5112L69.1858 25.7199C70.708 22.3968 73.7323 21.9957 75.3729 22.8841L73.8284 26.6944ZM52.5205 29.7693C52.5205 33.2736 53.4991 36.1384 55.4756 36.1384C57.6105 36.1384 58.2232 33.3308 58.2232 29.7693C58.2232 26.2079 57.2746 23.4292 55.2681 23.4292C53.1155 23.4292 52.5205 26.1507 52.5205 29.7693ZM62.8189 29.7121C62.8189 33.7319 60.0713 36.9911 55.1697 36.9911C50.3464 36.9911 47.9156 33.8879 47.9156 29.8198C47.9156 25.8283 50.6632 22.5053 55.5648 22.5053C60.3881 22.5053 62.8189 25.6278 62.8189 29.7047V29.7121ZM50.1958 22.7912L49.1964 23.0779C48.3461 20.2607 46.8439 18.6571 44.2547 18.6571H40.8745C40.6869 20.5288 40.5977 23.4218 40.6869 26.5451L42.9394 26.4307C44.4615 26.4307 45.1035 25.3708 45.4763 23.8311H46.3266V30.3435H45.4617C45.0958 28.7689 44.4623 27.6993 42.9248 27.6124L40.6723 27.5827C40.6723 29.903 40.703 31.8891 40.8599 33.0924C41.0082 34.8111 41.5026 35.594 42.8071 35.7566L44.0326 35.871V36.616H33V35.871L33.9194 35.7566C35.1941 35.5858 35.7184 34.8111 35.8667 33.0924C36.1127 30.2848 36.1742 24.2886 35.8667 20.9559C35.7184 19.1733 35.1948 18.464 33.9194 18.3206L33 18.1773V17.4048H50.1742L50.1958 22.7912Z" fill="white"/>
</svg>
