<svg width="150" height="60" viewBox="0 0 150 60" fill="none" xmlns="http://www.w3.org/2000/svg">
<path d="M28.75 23.987C28.75 25.207 29.078 25.3 30.485 25.347V25.769H25.047V25.347C26.172 25.3 26.5 25.159 26.5 23.987V16.111C26.5 14.891 26.172 14.798 25.094 14.751V14.329H34.658L34.705 16.861H34.235C33.86 15.595 33.391 15.173 31.141 15.173H29.361C28.798 15.173 28.705 15.267 28.705 15.773V19.43H30.675C32.503 19.43 32.878 19.102 33.075 17.93H33.497V22.01H33.075C32.841 20.65 32.137 20.275 30.675 20.275H28.705V23.979L28.75 23.987ZM40.096 23.987C40.096 25.207 40.424 25.3 41.831 25.347V25.769H36.111V25.347C37.471 25.3 37.846 25.159 37.846 23.987V16.111C37.846 14.891 37.566 14.798 36.111 14.751V14.329H41.831V14.751C40.471 14.798 40.096 14.939 40.096 16.111V23.987ZM53.692 16.392C53.692 15.267 53.412 14.798 52.098 14.657V14.235H56.178V14.657C54.912 14.797 54.584 15.257 54.584 16.392V25.992H53.984L46.108 16.897V23.555C46.108 24.68 46.388 25.149 47.702 25.29V25.712H43.622V25.29C44.888 25.15 45.216 24.69 45.216 23.555V15.855C44.841 15.152 44.372 14.825 43.622 14.683V14.261H46.762L53.654 22.231V16.371L53.692 16.392ZM59.834 21.642L61.569 17.094L63.304 21.642H59.834ZM68.084 25.768V25.346C67.184 25.346 67.006 25.018 66.584 23.94L62.504 14H61.941L57.721 24.267C57.441 25.017 57.018 25.205 56.315 25.345V25.767H60.019V25.355C59.222 25.355 58.847 25.167 58.847 24.605C58.847 24.135 59.41 22.823 59.503 22.505H63.676C63.816 22.88 64.379 24.193 64.379 24.605C64.379 25.168 63.957 25.355 63.159 25.355V25.777L68.084 25.768ZM79.3 16.392C79.3 15.267 79.02 14.798 77.706 14.657V14.235H81.786V14.657C80.52 14.797 80.192 15.257 80.192 16.392V25.992H79.592L71.716 16.897V23.555C71.716 24.68 71.996 25.149 73.31 25.29V25.712H69.21V25.29C70.476 25.15 70.804 24.69 70.804 23.555V15.855C70.429 15.152 69.96 14.825 69.21 14.683V14.261H72.35L79.242 22.231L79.3 16.392ZM93.88 23.096C92.66 25.159 91.067 26.096 88.723 26.096C84.973 26.096 82.723 23.658 82.723 19.954C82.723 17.329 84.786 14 88.818 14C90.038 14 91.725 14.703 92.006 14.703C92.334 14.703 92.428 14.515 92.756 14H93.356L93.59 17.844H93.12C92.417 16.062 91.245 14.75 89.22 14.75C86.5 14.75 85.32 17.704 85.32 19.907C85.32 23.001 86.633 25.111 89.54 25.111C91.79 25.111 93.01 23.423 93.525 22.711L93.88 23.096ZM99.412 23.996C99.412 25.216 99.74 25.309 101.147 25.356V25.778H95.427V25.356C96.787 25.309 97.162 25.168 97.162 23.996V16.12C97.162 14.9 96.834 14.807 95.427 14.76V14.338H101.147V14.76C99.787 14.807 99.412 14.948 99.412 16.12V23.996ZM105.882 21.652L107.617 17.104L109.352 21.652H105.882ZM114.132 25.778V25.356C113.232 25.356 113.054 25.028 112.632 23.95L108.552 14.01H107.989L103.769 24.277C103.489 25.027 103.066 25.215 102.363 25.355V25.777H106.067V25.355C105.27 25.355 104.895 25.167 104.895 24.605C104.895 24.135 105.458 22.823 105.551 22.505H109.724C109.864 22.88 110.427 24.193 110.427 24.605C110.427 25.168 110.005 25.355 109.207 25.355V25.777L114.132 25.778ZM115.162 25.778V25.356C116.24 25.309 116.568 25.168 116.568 23.996V16.12C116.568 14.9 116.24 14.807 115.162 14.76V14.338H120.46V14.76C119.194 14.807 118.866 14.948 118.866 16.12V24.22C118.866 24.923 119.054 25.158 120.319 25.158C122.382 25.158 123.601 24.783 124.585 22.758H125L124.203 25.852H115.061V25.758L115.162 25.778ZM27.492 43.978C28.805 43.931 29.132 43.79 29.132 42.618V33.758H27.72C26.407 33.758 25.845 34.321 25.47 35.858H25L25.28 32.904H35.407L35.687 35.858H35.217C34.842 34.264 34.317 33.758 32.967 33.758H31.56V42.618C31.56 43.838 31.888 43.931 33.2 43.978V44.4H27.67V43.978H27.492ZM40.807 42.618C40.807 43.838 41.135 43.931 42.542 43.978V44.4H36.822V43.978C38.182 43.931 38.557 43.79 38.557 42.618V34.742C38.557 33.522 38.229 33.429 36.822 33.382V32.96H42.542V33.382C41.182 33.429 40.807 33.57 40.807 34.742V42.618ZM54.637 32.866H58.622V33.288C57.544 33.335 57.216 33.476 57.216 34.648V42.571C57.216 43.791 57.544 43.884 58.622 43.931V44.353H53.4V43.931C54.525 43.884 54.853 43.743 54.853 42.571V34.471H54.806L50.962 44.551H50.4L46.603 34.471H46.556V42.253C46.556 43.378 46.836 43.847 48.15 43.988V44.41H44.07V43.988C45.336 43.848 45.664 43.388 45.664 42.253V34.377C45.664 33.58 45.336 33.299 44.07 33.299V32.877H48.243L51.3 40.855L54.637 32.866ZM60.217 44.399V43.977C61.295 43.93 61.623 43.789 61.623 42.617V34.741C61.623 33.521 61.295 33.428 60.217 33.381V32.959H69.817L69.864 35.491H69.394C69.019 34.225 68.55 33.803 66.3 33.803H64.518C63.955 33.803 63.862 33.897 63.862 34.403V38.06H65.832C67.66 38.06 68.035 37.732 68.232 36.56H68.654V40.64H68.232C67.998 39.28 67.294 38.952 65.832 38.952H63.862V42.937C63.862 43.64 64.05 43.875 66.112 43.875C68.174 43.875 69.394 43.5 70.378 41.475H70.8L70.003 44.569H60.12V44.381L60.217 44.399ZM72.417 40.799H72.839C73.309 42.299 74.809 43.939 76.496 43.939C77.949 43.939 78.466 42.909 78.466 42.017C78.466 39.345 72.466 38.877 72.466 35.594C72.466 34 73.966 32.64 75.748 32.64C77.483 32.64 78.092 33.24 78.842 33.24C79.17 33.24 79.405 33.006 79.442 32.64H79.864V36.344H79.442C78.972 34.656 77.754 33.437 76.207 33.437C74.941 33.437 74.425 34.281 74.425 35.077C74.425 37.421 80.425 37.477 80.425 41.547C80.425 43.375 78.972 44.735 76.862 44.735C74.846 44.735 74.33 44.032 73.532 44.032C73.252 44.032 73.062 44.22 72.932 44.632H72.332L72.417 40.799Z" fill="white"/>
</svg>
