<svg width="150" height="60" viewBox="0 0 150 60" fill="none" xmlns="http://www.w3.org/2000/svg">
<path d="M47.0973 33.3573C46.7948 34.0718 46.4213 34.7531 45.9826 35.3907C45.3965 36.2386 44.9179 36.8255 44.5467 37.1515C43.9735 37.6865 43.3584 37.9613 42.7013 37.976C42.2291 37.976 41.6596 37.8396 40.9968 37.5631C40.3317 37.2878 39.72 37.1506 39.1617 37.1515C38.5756 37.1515 37.9466 37.2887 37.2746 37.5631C36.6012 37.8396 36.0576 37.9846 35.6439 37.9981C35.0132 38.0253 34.3842 37.7431 33.7568 37.1515C33.3561 36.797 32.8555 36.1893 32.2551 35.3283C31.5782 34.3435 31.0434 33.2657 30.6669 32.1274C30.2227 30.8149 30.0004 29.5433 30 28.3127C30 26.9029 30.3005 25.6882 30.9015 24.6684C31.3561 23.8684 32.0065 23.2008 32.7898 22.7305C33.5619 22.2617 34.4429 22.0095 35.3426 21.9996C35.8436 21.9996 36.5007 22.1568 37.3172 22.4658C38.1313 22.7759 38.6541 22.9332 38.8833 22.9332C39.0547 22.9332 39.6354 22.7493 40.6199 22.3828C41.5509 22.043 42.3377 21.9013 42.9804 21.9575C44.7247 22.1003 46.0334 22.7995 46.9067 24.0549C45.3467 25.014 44.5746 26.3559 44.5904 28.0805C44.6045 29.4228 45.0836 30.5381 46.0276 31.4266C46.4446 31.8315 46.9313 32.1554 47.4634 32.3823C47.3483 32.7212 47.2263 33.0462 47.0974 33.3574L47.0973 33.3573ZM43.0968 17.3844C43.0968 18.4365 42.7188 19.4177 41.963 20.328C41.0519 21.4089 39.9497 22.0335 38.7545 21.9349C38.7385 21.8026 38.7305 21.6695 38.7305 21.5362C38.7305 20.5263 39.1638 19.4454 39.9333 18.5616C40.3436 18.0942 40.8418 17.7146 41.3986 17.4453C41.9899 17.1529 42.5487 16.9923 43.075 16.9636C43.0899 17.1034 43.0972 17.2439 43.0968 17.3845V17.3844Z" fill="white"/>
<path d="M59.7563 27.1703H59.8499L62.7005 37.5781H65.6654L69.6499 22.3459H66.3936L64.0217 33.3768H63.9384L61.1295 22.3459H58.4767L55.6677 33.3768H55.5846L53.223 22.3459H49.9668L53.9408 37.5781H56.9058L59.7563 27.1703ZM80.3662 27.1703H80.4598L83.3104 37.5781H86.2753L90.2595 22.3459H87.0036L84.6316 33.3768H84.5484L81.7395 22.3459H79.0866L76.2778 33.3768H76.1945L73.833 22.3459H70.5767L74.5508 37.5781H77.5157L80.3662 27.1703ZM91.5544 22.3463V37.5781H97.2866C101.791 37.5781 104.444 34.7386 104.444 29.9039C104.444 25.0692 101.791 22.3459 97.2867 22.3459L91.5544 22.3463ZM94.6962 24.9747H96.9121C99.6793 24.9747 101.24 26.7274 101.24 29.9149C101.24 33.2083 99.7209 34.9394 96.9121 34.9394H94.6962V24.9747ZM112.394 37.842C116.077 37.842 118.646 35.6885 119 32.2896H115.941C115.608 34.0946 114.266 35.203 112.404 35.203C110.001 35.203 108.493 33.1973 108.493 29.9461C108.493 26.7372 110.022 24.7209 112.394 24.7209C114.225 24.7209 115.64 25.9454 115.931 27.8139H118.99C118.751 24.4043 116.004 22.082 112.394 22.082C108.046 22.082 105.289 25.0482 105.289 29.9567C105.289 34.8758 108.025 37.842 112.394 37.842Z" fill="white"/>
</svg>
