<svg width="150" height="60" viewBox="0 0 150 60" fill="none" xmlns="http://www.w3.org/2000/svg">
<path d="M53.936 13.116V13.8L54.571 13.946C55.547 14.19 55.694 14.776 56.084 16.631L57.1 21.846L54.268 37.079L50.411 17.939C49.971 15.839 49.825 14.277 51.388 13.935L52.12 13.789V13.116H43V13.8L43.928 14.045C44.856 14.289 45.246 14.728 45.881 17.609L52.081 46.952H53.681L57.831 24.786L62.431 46.952H63.701L69.658 18.516C70.342 15.246 70.635 14.316 71.808 14.016L72.735 13.771V13.116H66.035V13.8L67.06 13.995C68.525 14.288 68.866 15.215 68.182 18.975L64.53 37.079L60.83 17.939C60.43 16.035 60.195 14.277 61.807 13.984L62.881 13.789V13.105L53.936 13.116ZM97.38 13.208V13.892L98.6 14.185C99.673 14.429 100.113 14.82 100.113 16.187V39.867C100.113 42.503 100.113 45.97 97.378 45.97C95.816 45.97 94.598 44.603 94.694 43.675C94.791 42.162 97.428 42.259 97.574 39.818C97.721 38.118 96.646 37.318 95.572 37.181C94.059 36.986 92.204 38.255 92.154 40.794C92.106 44.064 94.254 47.042 97.914 47.042C101.964 47.042 104.614 44.31 104.614 39.085L104.615 16.235C104.615 14.868 104.957 14.428 105.933 14.185L107 13.881V13.197L97.38 13.208ZM80.93 13C76.78 13 74.437 16.467 74.437 21.007C74.437 29.454 85.325 32.725 85.325 40.342C85.325 43.955 83.811 45.956 81.625 45.956C78.355 45.956 76.01 42.003 75.425 35.704H74.693V46.836H75.279C75.767 45.236 76.402 45.079 76.939 45.079C77.867 45.079 78.842 47.029 81.674 47.029C86.019 47.029 88.85 43.271 88.852 38.093C88.852 27.938 77.964 25.448 77.964 18.173C77.964 16.513 78.452 14.073 80.894 14.073C84.41 14.073 85.924 18.711 86.509 24.326H87.241V13.196H86.655C86.411 14.27 85.972 14.758 85.337 14.758C84.214 14.758 83.637 13.001 80.943 13.001L80.93 13ZM88.79 22.575V22.695L88.813 22.681L88.801 22.581L88.79 22.575Z" fill="white"/>
</svg>
