<svg width="157" height="42" viewBox="0 0 157 42" fill="none" xmlns="http://www.w3.org/2000/svg">
<g clip-path="url(#clip0)">
<path d="M22.7107 22.0931V28.3024H20.4265V22.0931H11.5278V11.2559H20.4265V6.60474H22.7107V11.2559H31.7521V22.0931H22.7107ZM13.7406 19.8489H20.4265V13.4652H13.7406V19.8489ZM22.7107 19.8489H29.5037V13.4652H22.7107V19.8489Z" fill="#0087C5"/>
<path d="M29.9199 26.7441C29.6493 27.3716 29.3229 27.9747 28.9444 28.5464C28.8373 28.8487 29.0633 28.965 29.218 28.7208C29.218 28.6627 29.7177 27.9185 30.0032 27.372C30.4434 26.5115 30.8359 25.6045 30.8359 25.6045C31.0025 25.279 31.3475 25.4301 31.1928 25.779C30.8923 26.5327 30.5508 27.2702 30.1697 27.9883C29.772 28.7295 29.2891 29.4239 28.7302 30.058C28.6351 30.2557 28.8611 30.3836 29.0039 30.2092C29.4638 29.7476 29.8634 29.232 30.1935 28.6743C30.3839 28.3371 30.7884 27.5115 30.7884 27.5115C30.9549 27.2324 31.2642 27.4069 31.1453 27.6976L30.7408 28.5115C30.6337 28.7324 30.7408 28.7557 30.9192 28.7557C31.0977 28.7557 31.0382 28.872 30.9906 28.9417C30.094 30.5982 28.7587 31.9889 27.1243 32.9687C25.4899 33.9484 23.6164 34.4813 21.6993 34.5115C19.8575 34.4906 18.0549 33.9892 16.4778 33.059C14.9008 32.1289 13.6066 30.8038 12.7292 29.2208C12.4089 28.7446 12.1304 28.2429 11.8965 27.7208H14.3948C16.0722 30.5348 18.5467 32.2673 21.6279 32.2673C23.1611 32.2435 24.6577 31.8063 25.9529 31.0041C27.2481 30.2019 28.2915 29.0657 28.9682 27.7208L29.5749 26.6743C29.5912 26.6284 29.6252 26.5905 29.6696 26.5688C29.7141 26.5471 29.7655 26.5432 29.8128 26.558C29.8842 26.558 29.9199 26.6859 29.8723 26.8022" fill="#0087C5"/>
<path d="M21.4853 2.53488C17.7489 2.53488 14.0963 3.61784 10.9896 5.64682C7.88283 7.67579 5.46141 10.5596 4.03153 13.9337C2.60165 17.3078 2.22752 21.0205 2.95647 24.6024C3.68542 28.1842 5.48469 31.4744 8.12677 34.0568C10.7688 36.6392 14.1351 38.3978 17.7997 39.1103C21.4644 39.8228 25.2629 39.4571 28.7149 38.0595C32.167 36.662 35.1175 34.2952 37.1934 31.2587C39.2692 28.2221 40.3772 24.6521 40.3772 21C40.3772 16.1027 38.3868 11.4061 34.8439 7.94319C31.301 4.48031 26.4958 2.53488 21.4853 2.53488ZM21.4853 0C25.7347 0 29.8887 1.23163 33.422 3.53914C36.9552 5.84665 39.709 9.1264 41.3352 12.9636C42.9614 16.8009 43.3869 21.0233 42.5578 25.0969C41.7288 29.1705 39.6825 32.9123 36.6778 35.8492C33.673 38.7861 29.8447 40.7862 25.6769 41.5965C21.5092 42.4068 17.1892 41.9909 13.2633 40.4015C9.33732 38.812 5.98177 36.1204 3.62093 32.667C1.26009 29.2135 0 25.1534 0 21C0 15.4305 2.26363 10.089 6.29291 6.15076C10.3222 2.21249 15.7871 0 21.4853 0" fill="#0087C5"/>
<path d="M80.8257 7.27899C80.5003 7.2854 80.1853 7.16748 79.9476 6.95032C79.7098 6.73315 79.5682 6.43389 79.5527 6.11619V5.26736C79.5833 4.95962 79.73 4.67403 79.9642 4.46623C80.1984 4.25843 80.5034 4.14331 80.8197 4.14331C81.1361 4.14331 81.441 4.25843 81.6753 4.46623C81.9095 4.67403 82.0562 4.95962 82.0867 5.26736V6.06968C82.0713 6.38533 81.9314 6.68286 81.6962 6.89971C81.461 7.11656 81.149 7.23584 80.8257 7.23247" fill="#0087C5"/>
<path d="M122.535 26.5348C122.639 27.4899 122.543 28.4558 122.253 29.3734C121.962 30.291 121.484 31.1412 120.846 31.872C120.246 32.3947 119.546 32.7954 118.786 33.051C118.026 33.3065 117.222 33.4117 116.42 33.3604C115.299 33.4023 114.19 33.1202 113.231 32.5494C112.273 31.9787 111.507 31.1445 111.031 30.1511C110.494 29.0247 110.207 27.8004 110.187 26.558C110.126 25.6029 110.26 24.6455 110.58 23.7414C110.901 22.8372 111.402 22.0042 112.054 21.2906C112.6 20.7828 113.248 20.3913 113.956 20.1411C114.665 19.8909 115.419 19.7874 116.171 19.8371C116.616 19.8167 117.062 19.8401 117.503 19.9069C118.229 20.1162 118.693 20.4301 118.621 21.0697C118.55 21.7092 118.074 22.0929 117.194 22.1627C117.003 22.1627 116.492 22.1627 116.278 22.1627C115.843 22.1398 115.408 22.2033 114.999 22.3492C114.59 22.495 114.216 22.7204 113.898 23.0115C113.478 23.4881 113.162 24.0429 112.968 24.6425C112.773 25.2421 112.705 25.874 112.768 26.4999C112.788 27.3881 112.995 28.2627 113.375 29.0697C113.637 29.6644 114.077 30.1673 114.638 30.512C115.199 30.8567 115.854 31.0268 116.516 30.9999C116.974 31.022 117.433 30.9519 117.862 30.7939C118.292 30.6359 118.684 30.3934 119.014 30.0813C119.417 29.5974 119.716 29.0392 119.894 28.4399C120.072 27.8406 120.125 27.2125 120.049 26.5929V15.372C120.049 12.4534 118.859 10.9766 116.409 10.9766C115.808 10.9567 115.212 11.0805 114.672 11.3371C114.35 11.5074 113.99 11.5954 113.625 11.5929C113.469 11.603 113.314 11.5792 113.169 11.5231C113.025 11.467 112.894 11.3802 112.789 11.2688C112.683 11.1574 112.603 11.0243 112.557 10.8793C112.51 10.7342 112.497 10.5808 112.518 10.4301C112.536 10.1897 112.619 9.95819 112.759 9.75983C112.9 9.56146 113.092 9.40345 113.315 9.30222C114.24 8.72711 115.327 8.45426 116.42 8.52315C120.287 8.52315 122.595 11.0697 122.595 15.3255V26.4999L122.535 26.5348Z" fill="#0087C5"/>
<path d="M135.182 15.9186C135.087 14.5116 135.693 13.9651 136.371 13.9651C137.05 13.9651 137.502 14.2674 137.68 15.2558C137.689 16.3111 137.924 17.3527 138.37 18.3139C138.668 18.8119 139.108 19.2144 139.636 19.4724C140.164 19.7305 140.758 19.833 141.344 19.7674C142.3 19.8245 143.24 19.5112 143.961 18.8953C144.379 18.4483 144.693 17.9193 144.884 17.3437C145.075 16.7681 145.137 16.1593 145.068 15.5581V9.82558C145.076 9.51285 145.201 9.21396 145.421 8.98642C145.641 8.75888 145.939 8.61876 146.258 8.59302C146.563 8.62141 146.849 8.75304 147.066 8.96526C147.283 9.17749 147.418 9.45703 147.447 9.75581L147.53 28.6512C147.53 32.686 146.246 35.3139 143.628 36.6977C141.414 37.752 138.935 38.156 136.49 37.8605C136.309 37.862 136.13 37.8281 135.962 37.7608C135.795 37.6934 135.643 37.5939 135.515 37.4682C135.388 37.3425 135.287 37.193 135.22 37.0288C135.152 36.8645 135.119 36.6886 135.122 36.5116C135.164 36.1956 135.33 35.9081 135.586 35.7104C135.842 35.5127 136.166 35.4205 136.49 35.4535C140.999 35.4535 145.08 35.3721 145.08 28.5814V20.6512C144.585 21.1427 143.991 21.5279 143.336 21.7822C142.68 22.0364 141.978 22.1542 141.273 22.1279C137.157 22.1279 135.42 19.2209 135.134 16.3139L135.182 15.9186Z" fill="#0087C5"/>
<path d="M62.4096 37.907C60.7709 37.9398 59.1521 37.5509 57.7156 36.7795C56.279 36.0081 55.0752 34.8811 54.2247 33.5116C52.7973 31.2494 52.0358 28.6462 52.0238 25.9884V16.4767C51.9759 14.1637 52.3797 11.8629 53.2135 9.69766C53.8064 7.95764 54.983 6.4643 56.5529 5.45969C58.1227 4.45508 59.9936 3.99809 61.8624 4.16278C62.1938 4.15555 62.5158 4.27158 62.7631 4.48742C63.0104 4.70326 63.1647 5.00282 63.1948 5.32557C63.1955 5.48749 63.1615 5.64776 63.0952 5.79612C63.0288 5.94448 62.9315 6.07765 62.8094 6.18712C62.6873 6.29658 62.5432 6.37992 62.3863 6.43179C62.2293 6.48367 62.063 6.50293 61.8981 6.48836C60.5263 6.42868 59.171 6.79935 58.0302 7.54621C56.8893 8.29307 56.0228 9.37697 55.5571 10.6395C54.8552 12.5271 54.5242 14.5273 54.5816 16.5349V26.0465C54.5816 28.6977 55.9973 35.5581 62.4334 35.5581C67.894 35.5581 69.845 31.3721 69.845 27.4186C69.8756 27.1109 70.0222 26.8253 70.2565 26.6175C70.4907 26.4097 70.7957 26.2945 71.112 26.2945C71.4283 26.2945 71.7333 26.4097 71.9676 26.6175C72.2018 26.8253 72.3485 27.1109 72.379 27.4186C72.4299 29.9994 71.592 32.5221 69.9997 34.5814C69.081 35.6782 67.9136 36.5508 66.5899 37.13C65.2663 37.7093 63.8228 37.9793 62.3739 37.9186" fill="#0087C5"/>
<path d="M80.8377 33.3721C80.6756 33.3816 80.5132 33.3586 80.3605 33.3045C80.2078 33.2503 80.0681 33.1662 79.95 33.0572C79.8318 32.9483 79.7377 32.8168 79.6735 32.671C79.6093 32.5252 79.5764 32.3681 79.5767 32.2093V9.80234C79.5767 9.4739 79.7102 9.15892 79.9478 8.92668C80.1854 8.69444 80.5076 8.56396 80.8437 8.56396C81.1797 8.56396 81.5019 8.69444 81.7395 8.92668C81.9772 9.15892 82.1106 9.4739 82.1106 9.80234V32.1744C82.1109 32.3332 82.078 32.4903 82.0138 32.6361C81.9496 32.782 81.8555 32.9134 81.7373 33.0223C81.6192 33.1313 81.4795 33.2154 81.3268 33.2696C81.1741 33.3237 81.0117 33.3467 80.8496 33.3372" fill="#0087C5"/>
<path d="M75.4367 10.1976C76.0753 10.9018 76.5649 11.7227 76.8773 12.6128C77.1897 13.5029 77.3187 14.4446 77.2568 15.3837V32.1976C77.2568 32.5261 77.1233 32.8411 76.8857 33.0733C76.6481 33.3055 76.3259 33.436 75.9898 33.436C75.6538 33.436 75.3316 33.3055 75.0939 33.0733C74.8563 32.8411 74.7229 32.5261 74.7229 32.1976V15.4186C74.8385 14.1587 74.4409 12.9052 73.6165 11.9302C73.2736 11.6261 72.8712 11.3931 72.4337 11.2452C71.9961 11.0973 71.5324 11.0376 71.0706 11.0697C70.6143 11.0402 70.1567 11.1035 69.7267 11.2556C69.2966 11.4077 68.9036 11.6453 68.5723 11.9535C68.132 12.419 67.7981 12.9709 67.593 13.5724C67.3879 14.1739 67.3162 14.8112 67.3826 15.4418V27.4302C67.3521 27.7379 67.2054 28.0235 66.9712 28.2313C66.7369 28.4391 66.432 28.5543 66.1156 28.5543C65.7993 28.5543 65.4943 28.4391 65.2601 28.2313C65.0259 28.0235 64.8792 27.7379 64.8486 27.4302V5.33718C64.8792 5.02945 65.0259 4.74385 65.2601 4.53605C65.4943 4.32825 65.7993 4.21313 66.1156 4.21313C66.432 4.21313 66.7369 4.32825 66.9712 4.53605C67.2054 4.74385 67.3521 5.02945 67.3826 5.33718V9.98834C68.363 9.07888 69.6717 8.58559 71.023 8.61625C71.8202 8.58089 72.6165 8.70268 73.3645 8.97436C74.1126 9.24604 74.797 9.66206 75.3772 10.1976" fill="#0087C5"/>
<path d="M108.414 35.4999C108.741 35.4999 109.054 35.6267 109.285 35.8524C109.516 36.0781 109.645 36.3842 109.645 36.7034C109.645 37.0226 109.516 37.3287 109.285 37.5544C109.054 37.7801 108.741 37.9069 108.414 37.9069H106.035C104.014 37.8338 102.028 37.3674 100.194 36.5348C98.3245 35.7 96.7568 34.3333 95.6955 32.6134C94.6342 30.8935 94.1288 28.9006 94.2452 26.8953V15.3837C94.2377 14.4865 94.0307 13.6017 93.6385 12.7906C93.3776 12.2072 92.9342 11.7196 92.3721 11.3979C91.8099 11.0761 91.1579 10.9368 90.5097 10.9999C89.8708 10.9375 89.2284 11.0779 88.6776 11.4005C88.1269 11.7231 87.6972 12.2105 87.4522 12.7906C87.0897 13.6278 86.8842 14.5219 86.8455 15.4302V32.1744C86.8455 32.5028 86.712 32.8178 86.4744 33.05C86.2368 33.2823 85.9145 33.4127 85.5785 33.4127C85.2425 33.4127 84.9202 33.2823 84.6826 33.05C84.445 32.8178 84.3115 32.5028 84.3115 32.1744V9.80226C84.3269 9.48662 84.4669 9.18909 84.7021 8.97224C84.9372 8.75539 85.2493 8.63611 85.5726 8.63947C86.2745 8.63947 86.8336 9.19761 86.8336 10.2674C87.2498 9.73453 87.7918 9.30812 88.4134 9.02463C89.0349 8.74113 89.7174 8.60898 90.4026 8.63947C91.5361 8.56553 92.6654 8.83371 93.6378 9.40771C94.6102 9.98172 95.3787 10.8338 95.8394 11.8488C96.3448 12.9809 96.5924 14.2069 96.5651 15.4418V26.9534C96.4567 28.5061 96.8361 30.0542 97.6525 31.3903C98.4689 32.7265 99.6834 33.7871 101.133 34.4302C102.626 35.1196 104.243 35.5147 105.892 35.593L108.414 35.4999Z" fill="#0087C5"/>
<path d="M107.641 33.3838C107.04 33.3844 106.44 33.3455 105.844 33.2675C104.115 33.122 102.464 32.4967 101.086 31.4652C100.503 30.9504 100.042 30.3174 99.7362 29.6104C99.43 28.9033 99.2857 28.1394 99.3132 27.3722V15.3257C99.2332 14.3914 99.3526 13.4512 99.6638 12.5644C99.9751 11.6777 100.472 10.8639 101.122 10.1745C101.71 9.63797 102.403 9.22255 103.159 8.95289C103.916 8.68323 104.719 8.56483 105.523 8.60472C106.324 8.56968 107.123 8.69729 107.87 8.97949C108.618 9.26169 109.297 9.69235 109.866 10.2443C111.118 11.6876 111.768 13.5394 111.686 15.4303C111.727 16.8663 111.223 18.2664 110.27 19.3605C109.691 20.1446 108.944 20.7955 108.081 21.2675C107.218 21.7396 106.26 22.0213 105.273 22.0931C104.238 22.1629 103.513 21.9303 103.358 21.3838C103.203 20.8373 103.358 20.1396 104.441 19.8722C105.523 19.6047 109.199 19.1977 109.199 15.3954C109.263 14.7649 109.19 14.1284 108.985 13.5274C108.78 12.9264 108.447 12.3743 108.01 11.907C107.679 11.5983 107.286 11.3603 106.856 11.2082C106.426 11.056 105.968 10.9931 105.511 11.0233C104.528 10.9961 103.574 11.3516 102.858 12.0117C102.073 13.0024 101.718 14.2556 101.871 15.5001V27.3722C101.847 27.8052 101.921 28.238 102.088 28.6399C102.254 29.0419 102.509 29.403 102.835 29.6977C104.238 30.9303 107.26 30.9303 108.188 30.9884C109.116 31.0466 109.449 31.3954 109.449 32.0815C109.449 32.7675 109.199 33.2443 108.26 33.3722L107.641 33.3838Z" fill="#0087C5"/>
<path d="M130.649 33.3606C129.857 33.3959 129.066 33.2762 128.323 33.0087C127.579 32.7411 126.898 32.331 126.318 31.8024C125.695 31.2562 125.207 30.5791 124.889 29.8218C124.572 29.0646 124.434 28.247 124.486 27.4304C124.582 26.3838 125.248 26.0117 125.878 26.1164C126.182 26.1854 126.454 26.3504 126.652 26.5859C126.85 26.8214 126.963 27.1141 126.973 27.4187C126.974 28.1442 127.166 28.8572 127.532 29.4885C127.868 29.9873 128.337 30.3872 128.888 30.6453C129.44 30.9034 130.052 31.01 130.661 30.9536C131.103 30.9821 131.547 30.9238 131.966 30.782C132.384 30.6402 132.77 30.4178 133.1 30.128C133.941 29.1587 134.368 27.9089 134.289 26.6397C134.273 25.8358 134.087 25.0439 133.742 24.3141C133.454 23.7122 133.002 23.1995 132.435 22.8323C131.868 22.4652 131.209 22.2577 130.53 22.2327C128.836 22.0549 127.273 21.2594 126.153 20.005C125.033 18.7506 124.438 17.1296 124.486 15.4652C124.405 13.5745 125.055 11.7231 126.307 10.2792C126.834 9.72941 127.478 9.2981 128.192 9.01504C128.907 8.73197 129.676 8.6039 130.447 8.63966C131.491 8.5845 132.532 8.79686 133.467 9.25573C134.402 9.7146 135.198 10.4041 135.776 11.2559C135.872 11.3834 135.94 11.5287 135.977 11.6828C136.013 11.837 136.017 11.9968 135.988 12.1524C135.959 12.3081 135.898 12.4564 135.808 12.5881C135.719 12.7199 135.603 12.8324 135.467 12.9187C134.86 13.2559 134.051 12.7792 133.635 12.3838C133.268 11.9631 132.812 11.6255 132.299 11.3946C131.785 11.1636 131.226 11.0449 130.661 11.0466C130.202 11.0155 129.743 11.078 129.31 11.2301C128.878 11.3823 128.483 11.6207 128.151 11.9304C127.336 12.9147 126.914 14.1537 126.961 15.4187C126.984 16.2216 127.17 17.012 127.508 17.7443C127.809 18.344 128.274 18.8504 128.852 19.2076C129.429 19.5647 130.096 19.7585 130.78 19.7676C132.484 19.9269 134.061 20.7207 135.184 21.9847C136.307 23.2487 136.889 24.8861 136.811 26.5583C136.901 28.4932 136.208 30.3849 134.884 31.8257C134.318 32.3441 133.652 32.7468 132.925 33.0104C132.197 33.2739 131.424 33.393 130.649 33.3606Z" fill="#0087C5"/>
<path d="M150.683 11.6861C150.679 11.2784 150.757 10.8739 150.913 10.4958C151.069 10.1177 151.3 9.77326 151.592 9.48227C152.182 8.89458 152.987 8.56009 153.829 8.55238C154.672 8.54467 155.483 8.86438 156.084 9.44116C156.685 10.0179 157.028 10.8046 157.036 11.628C157.036 12.4467 156.703 13.232 156.11 13.811C155.518 14.3899 154.715 14.7152 153.877 14.7152C153.039 14.7152 152.236 14.3899 151.644 13.811C151.051 13.232 150.718 12.4467 150.718 11.628L150.683 11.6861ZM156.631 11.6861C156.631 10.9614 156.337 10.2663 155.812 9.75389C155.288 9.24144 154.577 8.95354 153.835 8.95354C153.094 8.95354 152.383 9.24144 151.858 9.75389C151.334 10.2663 151.04 10.9614 151.04 11.6861C151.04 12.4108 151.334 13.1059 151.858 13.6183C152.383 14.1308 153.094 14.4187 153.835 14.4187C154.577 14.4187 155.288 14.1308 155.812 13.6183C156.337 13.1059 156.631 12.4108 156.631 11.6861ZM152.658 10.3256C152.658 10.2609 152.684 10.1988 152.731 10.153C152.778 10.1072 152.841 10.0815 152.907 10.0815H154.097C154.751 10.0815 155.287 10.4187 155.287 11.0349C155.286 11.2538 155.211 11.4662 155.073 11.6388C154.935 11.8114 154.742 11.9343 154.525 11.9884L155.215 12.7908C155.274 12.8456 155.308 12.9208 155.311 13.0001C155.312 13.031 155.307 13.062 155.296 13.091C155.285 13.12 155.267 13.1463 155.245 13.1682C155.222 13.1902 155.195 13.2072 155.166 13.2183C155.136 13.2294 155.104 13.2343 155.073 13.2326C155.023 13.2299 154.974 13.2159 154.931 13.1917C154.887 13.1675 154.85 13.1337 154.823 13.0931L153.931 12.0466H153.205V12.9884C153.205 13.0547 153.178 13.1183 153.13 13.1652C153.082 13.2121 153.017 13.2384 152.949 13.2384C152.881 13.2384 152.816 13.2121 152.768 13.1652C152.72 13.1183 152.693 13.0547 152.693 12.9884L152.658 10.3256ZM154.026 11.628C154.478 11.628 154.728 11.3954 154.728 11.0582C154.728 10.721 154.454 10.5117 154.026 10.5117H153.169V11.6745L154.026 11.628Z" fill="#0087C5"/>
</g>
<defs>
<clipPath id="clip0">
<rect width="157" height="42" fill="white"/>
</clipPath>
</defs>
</svg>
