<svg width="240" height="70" viewBox="0 0 240 70" fill="none" xmlns="http://www.w3.org/2000/svg">
<path d="M109.315 14.0589V7.22885L107.072 8.12622C107.072 8.12622 106.523 9.27287 106.623 10.9679C106.673 12.314 107.47 13.8595 108.069 14.5574L109.315 14.0589ZM115.347 0C115.846 0.0498541 116.693 0.299125 117.292 0.797666C117.94 1.39592 118.089 2.34314 117.89 3.19066C117.691 3.93848 117.441 4.33731 116.644 4.8857C115.846 5.4341 115.248 5.48395 115.248 5.48395V8.77433L116.793 9.97083L115.248 11.3667V15.8536C115.248 15.8536 116.544 14.8067 117.541 12.7627C117.541 12.7627 117.591 12.663 117.691 12.4137C117.79 12.9621 117.74 14.1087 117.092 15.5046C116.594 16.6014 115.746 17.5985 114.6 18.1968C112.655 19.2437 111.16 19.3434 109.614 19.0443C107.77 18.6953 106.074 17.6982 104.978 15.9533C104.18 14.707 103.831 13.3111 103.831 11.7656C103.881 8.72447 106.224 6.13206 108.916 5.13498C109.265 5.03527 109.365 4.93556 109.814 4.8857C109.614 5.03527 109.365 5.18483 109.066 5.38425C108.218 5.93264 107.47 7.02943 107.121 7.87695L112.306 5.63352V12.663L108.168 14.707C108.667 15.3551 110.113 16.3023 111.359 16.4519C113.453 16.7011 114.849 15.9035 114.849 15.9035V11.3169L113.303 9.97083L114.849 8.77433V5.48395C113.951 5.38425 112.705 4.98541 112.107 4.83585C111.16 4.63644 108.069 3.78891 107.57 3.68921C107.072 3.63935 106.473 3.63935 106.124 3.93848C105.775 4.2376 105.526 4.83585 105.676 5.33439C105.775 5.63352 105.975 5.78308 106.124 5.93264C106.124 5.93264 105.925 5.93264 105.626 5.73323C105.028 5.38425 104.579 4.73614 104.529 3.88862C104.5 3.36691 104.604 2.84633 104.83 2.37553C105.057 1.90474 105.399 1.49909 105.825 1.1965C106.623 0.697958 107.52 0.398833 108.567 0.548396C110.113 0.747812 112.157 1.59533 114.001 2.04402C114.699 2.19358 115.248 2.24344 115.746 1.99417C115.995 1.8446 116.394 1.39592 116.045 0.84752C115.646 0.199416 114.899 0.199416 114.251 0.0997082C114.849 -9.6575e-08 114.949 0 115.347 0Z" fill="#6E6C6D"/>
<path d="M135.637 12.2641L133.244 13.9592V8.37551L135.637 12.2641ZM135.538 6.87988L132.896 8.42536L130.403 9.72157V16.2026L129.456 16.9504L129.605 17.1L130.552 16.3522L133.494 18.8947L138.579 15.0061L138.479 14.8565L135.637 17.0003L133.244 14.9563V14.1586L137.881 10.8682L135.538 6.87988Z" fill="#6E6C6D"/>
<path d="M122.177 21.4373C122.826 21.5869 124.022 21.6866 125.468 20.9886C127.063 20.2408 127.661 18.5956 127.661 16.9504L127.711 14.6073V9.42247L128.708 8.67466L128.609 8.52509L127.612 9.27291L125.468 6.7802L122.177 9.22305V0.947266L118.837 3.68924C118.987 3.78895 119.735 3.88866 119.735 4.58662V16.2026L117.99 17.2994L118.089 17.449L118.837 16.9006L120.931 18.795L124.222 16.2525L124.122 16.1029L123.324 16.7012L122.227 15.9534V9.47232L123.524 8.67466L125.318 10.5193V16.1029C125.318 17.5985 124.919 19.3434 124.122 20.2408C123.324 21.1382 123.025 21.188 122.177 21.4373Z" fill="#6E6C6D"/>
<path d="M137.283 62.4563L134.641 64.1513V58.5676L137.283 62.4563ZM137.233 57.072L134.541 58.6175L132.098 59.9137V66.3948L131.051 67.1426L131.201 67.2921L132.148 66.5443L135.089 69.0869L140.175 65.1982L140.075 65.0487L137.233 67.1924L134.89 65.0985V64.3009L139.526 61.0105L137.233 57.072Z" fill="#6E6C6D"/>
<path d="M128.776 69.0852L131.867 66.3443L131.718 66.1952L130.972 66.844L129.676 65.647V59.5648L130.922 58.7165L130.823 58.5673L129.676 59.4157L127.582 57.1223L124.591 59.4157L122.447 57.223L119.557 59.4157L117.413 57.223L114.322 59.8333L114.42 59.9825L115.418 59.1845L116.816 60.732V66.1168L116.119 66.7135L118.362 69.1374L120.655 66.9447L119.708 65.9975V59.5164L120.256 59.0689L121.701 60.8644V66.197L121.254 66.7937L123.348 69.0367L125.591 66.8925L124.696 66.0441V59.563L125.345 59.0651L127.209 60.8103V66.1429L126.463 66.6408L128.776 69.0852ZM110.231 66.693L109.336 67.4388L109.435 67.588L110.382 66.7899L112.425 69.0833L115.368 66.5401L115.269 66.3909L114.374 67.1367L113.177 65.7905V59.7625L114.221 58.9141L114.072 58.7649L113.074 59.6133L110.93 57.1894L107.76 59.6823L108.159 59.7811L108.957 59.1323L110.253 60.5773L110.231 66.693ZM112.852 54.5287L110.609 56.4734L108.814 54.579L111.062 52.584L112.852 54.5287Z" fill="#6E6C6D"/>
<path d="M98.8458 64.251V57.421L96.7519 58.3184C96.7519 58.3184 96.2036 59.465 96.3033 61.1601C96.3531 62.5061 97.1508 64.0516 97.749 64.7496L98.8458 64.251ZM104.828 50.1921C105.377 50.242 106.174 50.4913 106.773 50.9898C107.421 51.5881 107.57 52.5353 107.371 53.3828C107.171 54.1306 106.922 54.5295 106.125 55.0778C105.327 55.6262 104.729 55.5764 104.729 55.5764V58.8668L106.224 60.163L104.729 61.4592V65.8962C104.729 65.8962 105.975 64.9988 107.022 62.9548C107.022 62.9548 107.072 62.8551 107.171 62.6058C107.271 63.1542 107.221 64.3009 106.573 65.6968C106.075 66.7936 105.227 67.7907 104.081 68.3889C102.136 69.4358 100.641 69.5356 99.0951 69.2364C97.2505 68.8875 95.5554 67.8904 94.4587 66.1455C93.661 64.8991 93.312 63.5032 93.312 61.9577C93.3619 58.9166 95.705 56.3242 98.3971 55.3271C98.6963 55.2274 98.8458 55.1277 99.2945 55.0778C99.0951 55.2274 98.8458 55.377 98.5467 55.5764C97.6992 56.1248 96.9514 57.2216 96.6024 58.0691L101.737 55.9254V62.9548L97.6493 64.8991C98.1479 65.5472 99.5936 66.4945 100.84 66.644C102.934 66.8933 104.28 65.9959 104.28 65.9959V61.4093L102.784 60.1131L104.28 58.8169V55.5265C103.383 55.4268 102.236 55.1277 101.588 54.9781C100.641 54.7787 97.5496 53.9312 97.0511 53.8315C96.5525 53.7816 95.9543 53.7816 95.6053 54.0808C95.2563 54.3799 95.007 54.9781 95.1566 55.4767C95.2563 55.7758 95.4557 55.9254 95.6053 56.0749C95.6053 56.0749 95.4059 56.0749 95.1068 55.8755C94.5085 55.5265 94.0598 54.8784 94.01 54.0309C93.9809 53.5092 94.0845 52.9886 94.3112 52.5178C94.5378 52.047 94.8802 51.6414 95.3062 51.3388C96.1038 50.8402 97.0012 50.5411 98.0482 50.6907C99.5936 50.8901 101.638 51.7376 103.482 52.1863C104.18 52.3359 104.729 52.3857 105.227 52.1365C105.476 51.9869 105.875 51.5382 105.526 50.9898C105.127 50.3417 104.38 50.3417 103.732 50.242C104.28 50.1921 104.429 50.1921 104.828 50.1921Z" fill="#6E6C6D"/>
<path d="M143.616 58.3682V61.6087L145.012 62.5559C145.012 62.5559 147.405 60.6615 148.302 58.9664C148.302 58.9664 147.206 60.4122 145.76 59.9635C144.513 59.6145 143.915 58.418 143.915 58.418L143.616 58.3682ZM141.173 66.8933C141.173 66.8933 142.22 65.1982 144.065 65.5472C145.81 65.8962 146.607 67.6909 146.607 67.6909V63.6029L145.162 62.6058C143.865 63.902 141.472 65.7466 141.173 66.8933ZM142.918 69.9842C142.569 70.0839 141.123 69.7349 140.774 68.2393C140.425 66.7935 141.472 65.8463 143.018 64.3008L141.173 62.6556V59.5647C141.173 59.5647 142.519 58.9166 143.566 58.2685L145.71 56.9224C145.71 56.9224 146.508 57.8696 147.405 57.8198C148.801 57.7201 148.751 56.6233 148.701 56.374C148.95 56.7729 149.599 58.0192 147.106 60.7612L149.1 62.3067V66.3449C149.1 66.3449 146.807 67.4915 144.563 69.0868C144.563 69.0868 143.317 67.5912 142.27 68.2892C141.572 68.8376 141.921 69.6352 142.918 69.9842Z" fill="#6E6C6D"/>
<path d="M79.8699 43.6811C78.5737 43.5315 78.0253 42.7837 78.0253 42.1356C78.0253 41.7368 78.4242 40.989 79.2218 40.8893C80.0195 40.7896 80.8172 41.1385 81.5151 41.9362L84.5562 38.6957L84.4067 38.5461L83.609 39.4435C82.7615 38.5461 81.7644 37.9479 80.5679 37.7983V27.8773L88.2953 41.7867C88.2953 41.7867 88.4947 41.9362 88.8437 41.9362C89.1428 41.9362 89.0431 41.7368 89.0431 41.7368V27.7278C89.6912 27.7278 90.5387 27.3788 91.0373 26.8803C92.5329 25.3846 91.9346 23.7395 91.7851 23.54C91.6854 24.238 91.137 24.9858 90.1897 24.9858C88.9434 24.9858 88.1956 24.0884 88.1956 24.0884L85.0548 27.4785L85.2043 27.6281L86.0518 26.6809C87.0988 27.6281 87.697 27.7278 88.4947 27.7776V35.9039L82.8612 25.5841C82.3128 24.7365 81.5151 23.9887 80.2688 23.9887C78.823 23.9887 77.7761 25.2351 77.6265 26.282C77.4769 27.4785 77.6265 27.7776 77.6265 27.7776C77.6265 27.7776 77.8259 26.4316 78.6734 26.4316C79.4212 26.4316 79.6705 26.8304 80.0195 27.329V30.6193C79.2218 30.6692 77.3274 30.7689 77.1778 32.8628C77.1778 33.6604 77.6763 34.4581 78.125 34.7074C78.6734 35.0563 79.1221 35.0563 79.1221 35.0563C79.1221 35.0563 78.474 34.7074 78.6734 34.0094C78.8728 33.4112 80.0195 33.3114 80.0693 33.5607V37.7485C79.4212 37.7485 77.5766 37.7983 76.6294 39.4934C76.081 40.4904 76.1309 41.6371 76.6793 42.4348C77.1778 43.1327 78.1749 43.9802 79.8699 43.6811Z" fill="#6E6C6D"/>
<path d="M96.6203 35.1062L94.0279 36.8012V31.2175L96.6203 35.1062ZM96.5206 29.7219L93.8285 31.2674L91.4853 32.5636V39.0446L90.5381 39.7925L90.6876 39.942L91.6349 39.1942L94.3769 41.7368L99.462 37.8481L99.3623 37.6986L96.5206 39.8423L94.2273 37.7484V36.9508L98.8637 33.6604L96.5206 29.7219Z" fill="#6E6C6D"/>
<path d="M103.699 41.8862L101.207 39.892L100.11 40.6398L100.01 40.4902L101.107 39.6926V34.0591C101.157 31.7658 98.9133 32.3142 99.0628 29.8713C99.1127 28.7745 100.209 27.9769 100.758 27.7276C101.356 27.4285 101.954 27.4285 101.954 27.4285C101.954 27.4285 100.907 28.0267 101.157 28.9241C101.556 30.32 103.949 30.4197 103.998 32.2643V38.6456L105.544 40.0416L105.993 39.6926V32.7629L105.295 31.8156L107.787 29.6719L110.081 31.6162L109.034 32.5136V38.6456L111.327 40.3407L111.726 40.0914V32.7629L110.779 31.8655L113.271 29.6719L115.614 31.5165L116.562 30.7188L116.661 30.8684L114.567 32.6632V38.6456L109.233 41.8363L106.491 39.7923L103.699 41.8862Z" fill="#6E6C6D"/>
<path d="M138.399 38.0476L140.992 40.291V33.4112L138.399 31.1179V38.0476ZM143.933 32.4141L144.831 31.6164L144.98 31.766L143.883 32.5637V38.9948L141.291 40.4905L138.898 41.8864L135.857 39.3937L135.059 40.0916L134.91 39.9421L135.957 39.2441V32.2645H135.807L138.449 30.9683L140.743 29.6721L143.933 32.4141Z" fill="#6E6C6D"/>
<path d="M149.964 31.7659L151.908 29.8216C151.908 29.8216 152.158 30.0709 152.407 30.1706C152.556 30.2205 153.155 30.5196 153.653 30.2205C153.952 30.0709 154.002 30.021 154.301 29.7219C154.351 31.2175 153.603 32.2645 152.706 32.7132C152.307 32.9126 151.011 33.2117 149.814 31.8657V38.7954L151.26 39.8423L152.307 39.0446L152.407 39.1942L149.216 41.7866L146.773 39.6429L145.876 40.4406L145.726 40.291L146.823 39.1444V33.2117L146.025 31.9155L145.128 32.6633L144.979 32.5138L148.069 29.8216L149.964 31.7659Z" fill="#6E6C6D"/>
<path d="M158.14 34.6576L161.73 29.6223C161.73 29.6223 162.228 30.1707 163.026 30.3701C164.123 30.6693 165.12 29.6223 165.12 29.6223C164.92 30.9684 164.222 32.5139 162.777 32.7631C161.48 32.9625 160.284 32.0153 160.284 32.0153L160.035 32.3643L165.02 39.643L166.017 38.7955L166.167 38.945L162.727 41.8366L158.14 34.6576Z" fill="#6E6C6D"/>
<path d="M155.349 27.8773C155.349 26.7806 154.701 26.1325 154.102 26.1823L157.842 23.54V38.596L159.038 39.6429L159.836 38.9948L159.985 39.1444L156.844 41.7867L154.701 39.8423L153.853 40.5902L153.704 40.4406L155.399 39.1942V27.8773H155.349Z" fill="#6E6C6D"/>
<path d="M130.022 32.1149C130.022 32.1149 129.573 32.6134 128.925 32.6134C128.227 32.6134 127.928 32.1149 127.928 32.1149V34.1589C127.928 34.1589 128.227 33.6604 128.925 33.6604C129.623 33.6604 130.022 34.1091 130.022 34.1091V32.1149ZM129.922 27.7277L128.676 26.4315L127.928 26.9799V31.8158C127.928 31.8158 128.377 32.3642 129.075 32.3642C129.773 32.3642 129.922 31.8158 129.922 31.8158V27.7277ZM127.928 41.3878C127.928 41.3878 128.826 41.637 129.524 41.0886C130.271 40.4904 129.922 39.6927 129.922 39.6927V34.5079C129.922 34.5079 129.723 33.9595 129.075 33.9595C128.377 33.9595 127.928 34.5079 127.928 34.5079V41.3878ZM122.444 27.628C122.444 26.6309 121.996 26.0327 121.347 26.0327C120.35 26.0327 120.101 27.3787 120.101 27.3787C120.101 27.3787 119.902 26.3318 120.849 25.3846C121.347 24.8362 122.295 24.0884 123.79 24.4374C125.336 24.7863 125.934 25.933 125.934 26.9799V40.9889C126.197 41.0528 126.463 41.1027 126.732 41.1385C127.18 41.2382 127.43 41.3379 127.43 41.3379V24.4872H127.928V26.7805L130.969 24.3376L133.263 26.3318L134.359 25.4344L134.459 25.584L133.362 26.5312V39.5432C133.312 40.3907 133.163 41.2382 132.315 41.7367C130.471 42.7837 128.227 41.5872 126.233 41.2881C124.738 41.0886 122.444 40.7895 121.846 42.1356C121.647 42.5843 121.647 43.2324 122.345 43.681C123.691 44.5286 129.673 42.2353 131.717 43.1327C133.562 43.9802 133.562 45.3262 133.312 46.2236C132.814 47.9187 130.57 48.2676 130.57 48.2676C130.57 48.2676 131.667 47.6694 131.368 46.6224C131.219 46.1239 130.87 45.9743 129.673 46.074C127.131 46.3732 124.04 47.5697 121.996 46.7222C120.949 46.2735 120.201 45.0271 120.251 43.7309C120.301 41.9362 122.494 41.1883 122.494 41.1883V34.458C122.444 34.2088 121.298 34.2586 120.998 34.7572C120.6 35.505 121.497 35.854 121.497 35.854C121.497 35.854 120.799 35.9537 120.201 35.3056C119.902 35.0064 119.303 33.8598 120.101 32.763C120.749 31.8656 121.547 31.7161 122.544 31.6164L122.444 27.628Z" fill="#6E6C6D"/>
</svg>
