<svg width="240" height="70" viewBox="0 0 240 70" fill="none" xmlns="http://www.w3.org/2000/svg">
<path fill-rule="evenodd" clip-rule="evenodd" d="M40.2976 16C40.1665 18.3225 40.0344 20.644 39.8993 23.0425C38.744 22.9999 37.6528 22.9603 36.5026 22.9187C36.4243 21.455 36.3481 20.0423 36.2689 18.5786H30.9833V28.9577H33.2725C33.4493 28.2029 33.6251 27.4534 33.809 26.6716H36.1683V33.8109H33.8506C33.6616 33.0447 33.4686 32.2598 33.2684 31.4509H30.9934V42.4681H36.3065C36.4751 40.9024 36.6438 39.344 36.8206 37.7033C38.0125 37.7439 39.1718 37.7824 40.3962 37.8251C40.4896 40.2736 40.5811 42.6773 40.6736 45.1237H23.2865V42.567C24.1258 42.4192 24.9092 42.2807 25.7282 42.136V18.8378C24.7974 18.7337 23.8992 18.6338 23 18.5318V16" fill="#6E6C6D"/>
<path fill-rule="evenodd" clip-rule="evenodd" d="M108.552 42.0118C110.098 42.6822 111.581 42.7166 113.095 42.1732C113.397 42.0639 113.572 41.8817 113.643 41.585C113.826 40.8136 114.054 40.0464 114.164 39.2625C114.497 36.8816 114.454 34.4852 114.281 32.0961C114.222 31.2851 114.074 30.4637 113.838 29.6882C113.323 27.9965 112.202 27.3448 110.491 27.6342C110.405 27.6488 110.322 27.6759 110.238 27.6925C109.21 27.8955 108.555 28.6961 108.554 29.7735C108.552 33.6545 108.553 37.5333 108.552 41.4143V42.0118ZM101.824 55.0017C101.87 54.2907 101.912 53.6547 101.955 52.9999C102.589 52.8562 103.175 52.724 103.799 52.5834V27.7331C103.091 27.6238 102.373 27.5124 101.611 27.3937V25.319C103.5 25.0504 105.414 24.7776 107.397 24.4955C107.606 25.2596 107.799 25.9696 108.002 26.715C108.083 26.6432 108.169 26.5807 108.235 26.5016C109.646 24.838 111.467 24.2655 113.546 24.4705C116.154 24.7277 117.59 26.4141 118.31 28.822C118.632 29.8943 118.847 31.0248 118.93 32.1439C119.101 34.4456 119.14 36.7609 118.705 39.0439C118.543 39.886 118.318 40.7345 117.989 41.5215C116.986 43.9252 115.147 45.1932 112.623 45.4191C111.333 45.5347 110.07 45.4066 108.87 44.8601C108.795 44.8268 108.71 44.8153 108.588 44.783V52.5855C109.21 52.7167 109.836 52.8489 110.554 53.0009C110.511 53.6588 110.468 54.3105 110.423 55.0017" fill="#6E6C6D"/>
<path fill-rule="evenodd" clip-rule="evenodd" d="M166.179 42.5956C166.912 42.7455 167.544 42.8756 168.215 43.0131C168.177 43.7334 168.142 44.4091 168.103 45.1253H161.482C161.475 44.9723 161.462 44.8244 161.462 44.6766C161.462 40.169 161.475 35.6603 161.451 31.1526C161.447 30.5468 161.312 29.9211 161.129 29.3413C160.908 28.6354 160.36 28.2534 159.648 28.0931C158.965 27.94 158.293 27.9962 157.671 28.2648C157.122 28.5032 156.682 28.9477 156.68 29.615C156.667 33.8791 156.675 38.1421 156.679 42.4061C156.679 42.4488 156.699 42.4905 156.727 42.6008C157.323 42.7257 157.949 42.8569 158.674 43.0089C158.632 43.7064 158.591 44.4007 158.547 45.1284H150.013V43.0193C150.668 42.8756 151.274 42.7424 151.916 42.6008V27.9369C151.217 27.8547 150.498 27.7703 149.74 27.6819V25.5217C151.596 25.249 153.432 24.9804 155.368 24.6972C155.541 25.3395 155.707 25.9642 155.871 26.5742C156.296 26.2442 156.737 25.8528 157.224 25.5353C159.084 24.3245 161.086 24.1174 163.134 24.8784C164.856 25.5196 165.757 26.9146 166.056 28.7281C166.138 29.2288 166.171 29.7431 166.173 30.2522C166.182 34.1154 166.178 37.9797 166.179 41.844" fill="#6E6C6D"/>
<path fill-rule="evenodd" clip-rule="evenodd" d="M49.0316 42.6009C49.7204 42.7446 50.3311 42.8716 50.9936 43.01C50.9519 43.7263 50.9123 44.405 50.8696 45.1244H42.2483C42.2848 44.429 42.3194 43.7554 42.358 43.0173C42.9798 42.8789 43.5844 42.7435 44.1859 42.6092C44.3221 42.1335 44.3566 28.6824 44.2133 27.9339C43.5143 27.8537 42.7929 27.7705 42.042 27.6841V25.5281C43.8862 25.2574 45.7395 24.9847 47.6822 24.6994C47.8529 25.3386 48.0145 25.9466 48.1933 26.6201C48.3518 26.4765 48.5306 26.3078 48.7156 26.1475C50.5181 24.588 52.5888 24.1196 54.8547 24.6859C56.8218 25.1773 57.9486 26.5473 58.3459 28.5523C58.4485 29.0697 58.4831 29.6089 58.4851 30.1378C58.4963 34.0229 58.4912 37.908 58.4912 41.7931V42.5947C59.1872 42.7342 59.8182 42.8612 60.5193 43.0028C60.502 43.3577 60.4796 43.7013 60.4715 44.0459C60.4634 44.3946 60.4705 44.7454 60.4705 45.1285H53.8081V44.3582C53.8071 40.0962 53.8112 35.8332 53.802 31.5702C53.801 31.0632 53.7593 30.549 53.6841 30.0472C53.5053 28.8677 52.8245 28.1681 51.6622 28.0547C50.8198 27.9724 49.9684 27.9922 49.3516 28.7709C49.1078 29.077 48.9899 29.3893 48.9919 29.7963C49.0062 33.0381 49.0001 36.2788 49.0001 39.5195C49.0001 40.319 48.998 41.1185 49.0011 41.918C49.0021 42.1356 49.0194 42.3521 49.0316 42.6009Z" fill="#6E6C6D"/>
<path fill-rule="evenodd" clip-rule="evenodd" d="M196.634 27.3956C195.914 27.3217 195.207 27.2499 194.447 27.1728V25.2698C196.58 25.021 198.722 24.7701 200.886 24.5172C201.148 25.3427 201.429 26.0902 201.426 26.9376C201.407 31.8887 201.416 36.8398 201.416 41.792V42.5925C202.108 42.7382 202.736 42.8694 203.417 43.0131C203.344 43.7293 203.277 44.4039 203.205 45.1212H197.664C197.504 44.6225 197.333 44.0864 197.141 43.4836C196.96 43.6294 196.825 43.7231 196.705 43.8355C194.444 45.9529 191.406 45.7364 189.475 44.7787C187.978 44.0354 187.169 42.7403 186.887 41.0924C186.794 40.549 186.755 39.9899 186.753 39.4382C186.742 35.7072 186.748 31.9772 186.748 28.2472V27.4112C185.989 27.3259 185.288 27.2488 184.553 27.1676V25.273C186.659 25.0231 188.774 24.7712 190.962 24.512C191.139 25.2594 191.451 25.934 191.449 26.7075C191.439 30.6155 191.44 34.5235 191.448 38.4315C191.449 38.9614 191.483 39.4954 191.551 40.0212C191.736 41.4557 192.635 42.3052 194.037 42.3302C194.527 42.3385 195.028 42.2386 195.508 42.1199C196.034 41.9887 196.698 41.0643 196.699 40.5229C196.701 36.2152 196.698 31.9074 196.696 27.6007C196.696 27.559 196.672 27.5184 196.634 27.3956Z" fill="#6E6C6D"/>
<path fill-rule="evenodd" clip-rule="evenodd" d="M97.0167 33.5981C96.9639 32.9818 96.9355 32.4738 96.8755 31.972C96.7333 30.78 96.5128 29.6058 95.9255 28.5449C95.2813 27.38 94.3028 27.0178 93.0642 27.4269C92.5765 27.5872 92.2544 27.8683 92.0593 28.3607C91.4111 30.0013 91.09 31.7097 91.0107 33.47C91.0046 33.5918 91.0514 33.7147 91.0829 33.8812C93.051 33.7876 94.9866 33.6949 97.0167 33.5981ZM91.1062 36.2204C91.1042 37.8798 91.3552 39.3498 92.2199 40.6438C92.9911 41.7993 94.0559 42.4052 95.4489 42.4291C96.7515 42.451 97.9851 42.1866 99.1759 41.6702C99.3334 41.6015 99.4929 41.5422 99.7103 41.4547C99.9735 42.07 100.23 42.6717 100.519 43.3504C100.168 43.5951 99.8343 43.872 99.4624 44.0771C97.0614 45.4064 94.5365 45.8645 91.8795 45.0702C89.6533 44.405 88.1942 42.8257 87.235 40.7281C86.1773 38.4139 85.9385 35.9623 86.1438 33.4461C86.2687 31.9106 86.5929 30.4219 87.2299 29.0176C88.2653 26.7356 89.8849 25.145 92.3459 24.6151C94.695 24.1081 96.8816 24.4142 98.6861 26.1974C99.7591 27.2562 100.35 28.6074 100.762 30.0534C101.185 31.5358 101.332 33.0599 101.336 34.5891C101.338 35.0888 101.052 35.5896 100.894 36.0976C97.6101 36.1382 94.3922 36.1798 91.1062 36.2204Z" fill="#6E6C6D"/>
<path fill-rule="evenodd" clip-rule="evenodd" d="M179.822 33.6001C179.762 32.202 179.61 30.9164 179.225 29.6651C179.028 29.0269 178.72 28.4585 178.317 27.9234C177.547 26.9043 175.162 27.1104 174.796 28.5074C174.5 29.638 174.126 30.7436 173.974 31.9095C173.892 32.5393 173.778 33.1671 173.898 33.8812C175.861 33.7886 177.794 33.6959 179.822 33.6001ZM183.726 36.0986C180.401 36.1392 177.198 36.1788 173.944 36.2194C173.868 36.9418 173.982 37.6122 174.107 38.2754C174.299 39.2904 174.664 40.2263 175.324 41.0289C176.066 41.9315 177.007 42.3864 178.154 42.4259C179.408 42.4697 180.611 42.2511 181.769 41.7628C182.006 41.6629 182.248 41.5723 182.539 41.4568C182.802 42.0824 183.056 42.6872 183.347 43.3816C183.24 43.4534 183.132 43.5232 183.026 43.5992C180.945 45.0847 178.613 45.6667 176.124 45.3866C173.053 45.04 171.004 43.1901 169.891 40.3262C168.452 36.6212 168.515 32.8558 169.995 29.1716C170.945 26.8054 172.625 25.1699 175.136 24.6192C177.106 24.1861 179.013 24.3152 180.737 25.5343C181.96 26.4004 182.709 27.6309 183.237 29.0165C183.916 30.7966 184.175 32.6611 184.134 34.56C184.121 35.068 183.872 35.5708 183.726 36.0986Z" fill="#6E6C6D"/>
<path fill-rule="evenodd" clip-rule="evenodd" d="M145.037 33.5961C144.978 32.9267 144.946 32.3354 144.871 31.7514C144.728 30.65 144.515 29.5642 143.97 28.5835C143.264 27.3124 142.206 26.947 140.885 27.4977C140.551 27.6362 140.317 27.8475 140.161 28.1984C139.582 29.5038 139.298 30.8832 139.133 32.2948C139.074 32.7903 139.047 33.2911 138.996 33.8855C141.054 33.7866 143.004 33.6929 145.037 33.5961ZM148.915 36.0977C145.613 36.1393 142.396 36.1799 139.124 36.2215C139.142 38.0267 139.421 39.6569 140.532 41.0269C141.245 41.9076 142.168 42.375 143.297 42.4219C144.572 42.4739 145.797 42.2595 146.977 41.764C147.215 41.664 147.454 41.5693 147.74 41.4517C148.001 42.0721 148.255 42.6738 148.536 43.338C148.308 43.5098 148.098 43.6909 147.867 43.8398C145.62 45.2806 143.169 45.7782 140.583 45.2639C138.168 44.7829 136.481 43.237 135.394 41.0165C134.287 38.7575 133.974 36.3361 134.141 33.8355C134.253 32.1647 134.565 30.5386 135.259 29.0104C136.072 27.2198 137.257 25.7748 139.088 25.0368C141.234 24.1706 143.396 24.0863 145.483 25.2429C146.855 26.0028 147.716 27.2469 148.316 28.6876C149.097 30.5552 149.357 32.5321 149.356 34.5403C149.356 35.0618 149.068 35.5844 148.915 36.0977Z" fill="#6E6C6D"/>
<path fill-rule="evenodd" clip-rule="evenodd" d="M78.2135 24.7015C78.3639 25.3167 78.5031 25.8872 78.6545 26.5066C78.8831 26.364 79.1148 26.2162 79.3495 26.0757C80.7212 25.2553 82.2138 24.8629 83.7846 24.6869C84.5447 24.6026 85.0822 24.8535 85.5201 25.5052C85.326 27.276 85.1299 29.0769 84.9267 30.9393C83.8375 30.8935 82.8062 30.8508 81.7393 30.805C81.6194 29.8109 81.5066 28.8729 81.3887 27.8964C80.6145 27.9599 79.9662 28.2025 79.3566 28.622V42.6144C79.9977 42.7633 80.6419 42.9143 81.3318 43.0735C81.2942 43.7564 81.2587 44.4102 81.2201 45.115H72.7023V43.0871C73.312 42.9278 73.8901 42.7768 74.4825 42.6217V27.9318C73.7926 27.8496 73.1331 27.7704 72.4341 27.6882V25.5229C74.3585 25.2491 76.2576 24.9795 78.2135 24.7015Z" fill="#6E6C6D"/>
<path fill-rule="evenodd" clip-rule="evenodd" d="M204.618 45.1366C204.649 44.4194 204.678 43.7614 204.709 43.0733C205.303 42.9224 205.866 42.7808 206.476 42.6257V27.9399C205.818 27.8577 205.142 27.7744 204.39 27.6807V25.5247C206.357 25.2468 208.256 24.9782 210.194 24.7044C210.349 25.3259 210.491 25.8953 210.622 26.42C211.441 26.0338 212.234 25.5726 213.084 25.2832C213.918 24.999 214.808 24.8814 215.676 24.7044C216.426 24.5503 217.038 24.7773 217.497 25.5154C217.308 27.2487 217.112 29.0507 216.907 30.9329C215.841 30.8923 214.811 30.8517 213.727 30.8111C213.605 29.8138 213.487 28.857 213.356 27.7931C212.65 28.045 212.007 28.2751 211.351 28.5093V42.6194C211.978 42.7652 212.622 42.9151 213.321 43.0775C213.279 43.7635 213.237 44.437 213.193 45.1366" fill="#6E6C6D"/>
<path fill-rule="evenodd" clip-rule="evenodd" d="M129.404 27.7747C128.65 28.0589 128.012 28.2994 127.374 28.5388V42.6198C128.05 42.7738 128.698 42.9227 129.387 43.0799C129.33 43.7784 129.277 44.4332 129.22 45.1255H120.724V43.0903C121.333 42.9321 121.912 42.7822 122.529 42.6218V27.933C121.839 27.8518 121.163 27.7716 120.454 27.6883V25.5282C122.34 25.2575 124.238 24.9848 126.216 24.7006C126.381 25.2929 126.543 25.8759 126.704 26.4558C127.264 26.1559 127.809 25.8415 128.374 25.5667C129.422 25.0566 130.55 24.8609 131.692 24.6995C132.45 24.5913 133.05 24.7828 133.545 25.4918C133.359 27.2261 133.167 29.0281 132.962 30.9322C131.899 30.8926 130.853 30.853 129.77 30.8124C129.649 29.8141 129.537 28.8761 129.404 27.7747Z" fill="#6E6C6D"/>
<path fill-rule="evenodd" clip-rule="evenodd" d="M67.3322 20.8142V24.944H70.8763C70.797 25.8621 70.7269 26.6846 70.6538 27.5361C69.5655 27.6631 68.5383 27.7839 67.4684 27.9088C67.445 28.0972 67.4054 28.2669 67.4054 28.4366C67.4074 32.4081 67.4125 36.3796 67.4196 40.3511C67.4196 40.6166 67.4206 40.8852 67.4562 41.1475C67.569 41.9793 68.1268 42.4998 68.9488 42.5248C69.595 42.5446 70.2412 42.5279 70.9657 42.5279C71.0388 43.2671 71.1069 43.9625 71.177 44.6672C70.669 45.017 70.1162 45.1118 69.5696 45.219C68.3717 45.4532 67.1696 45.5417 65.9565 45.3262C64.1062 44.9983 62.8991 43.7178 62.6837 41.8117C62.639 41.4161 62.6369 41.0153 62.6359 40.6156C62.6329 36.6222 62.6339 32.6288 62.6308 28.6344C62.6308 28.397 62.6004 28.1607 62.5831 27.913C61.8292 27.7839 61.1291 27.6642 60.3457 27.5309C60.3823 26.7033 60.4178 25.8934 60.4565 25.0033C61.2906 24.9617 62.1005 24.9211 62.9783 24.8773C63.3512 23.5875 63.7221 22.3008 64.1021 20.9849C65.1639 20.9287 66.1962 20.8746 67.3322 20.8142Z" fill="#6E6C6D"/>
<path d="M216.156 43.8011H216.287C216.456 43.8011 216.568 43.7418 216.568 43.6408C216.568 43.5326 216.465 43.4732 216.306 43.4732C216.25 43.4732 216.194 43.4816 216.156 43.4816V43.8011ZM216.137 44.5653H215.679V43.2296C215.781 43.213 216.025 43.1869 216.334 43.1869C216.671 43.1869 216.821 43.2296 216.933 43.289C217.027 43.3473 217.093 43.4482 217.093 43.5825C217.093 43.7168 216.953 43.8345 216.747 43.8844V43.9021C216.914 43.9521 217.008 44.052 217.055 44.2457C217.102 44.4393 217.131 44.5153 217.158 44.5653H216.643C216.596 44.5153 216.568 44.3966 216.54 44.28C216.512 44.1457 216.437 44.0781 216.287 44.0781H216.137V44.5653ZM215.173 43.8844C215.173 44.4893 215.669 44.9681 216.343 44.9681C217.018 44.9681 217.514 44.4893 217.514 43.8761C217.514 43.2806 217.018 42.7924 216.334 42.7924C215.669 42.7924 215.173 43.2806 215.173 43.8844ZM218.001 43.8761C218.001 44.6829 217.271 45.3294 216.343 45.3294C215.415 45.3294 214.677 44.6829 214.677 43.8761C214.677 43.0787 215.415 42.4312 216.343 42.4312C217.271 42.4312 218.001 43.0787 218.001 43.8761Z" fill="#6E6C6D"/>
</svg>
