<svg width="32" height="32" viewBox="0 0 32 32" fill="none" xmlns="http://www.w3.org/2000/svg">
<path d="M21.4853 9.43104C21.7592 9.1545 22.1315 8.99766 22.5208 8.99479C22.9101 8.99192 23.2847 9.14326 23.5627 9.41574C23.8407 9.68821 23.9996 10.0597 24.0045 10.4489C24.0095 10.8381 23.8602 11.2135 23.5893 11.493L15.7493 21.294C15.6146 21.439 15.452 21.5554 15.2714 21.6362C15.0907 21.717 14.8956 21.7606 14.6978 21.7643C14.4999 21.7681 14.3033 21.7319 14.1197 21.658C13.9361 21.584 13.7693 21.4739 13.6293 21.334L8.43126 16.138C8.15503 15.8617 7.99991 15.4869 8 15.0962C8.00009 14.7055 8.1554 14.3308 8.43176 14.0545C8.70811 13.7783 9.08288 13.6232 9.47361 13.6233C9.86434 13.6234 10.239 13.7787 10.5153 14.055L14.6263 18.167L21.4463 9.47704C21.4586 9.46123 21.472 9.4462 21.4863 9.43204L21.4853 9.43104Z" fill="#37B3E6"/>
</svg>
