<svg width="240" height="70" viewBox="0 0 240 70" fill="none" xmlns="http://www.w3.org/2000/svg">
<path d="M78.6817 27.7993H81.4535C84.6062 27.7993 86.1614 29.545 86.1614 33.2161C86.1614 36.8871 84.6062 38.6751 81.4535 38.6751H78.6817V27.7993ZM75.8569 41.119H81.8767C86.0133 41.119 89.0813 38.5799 89.0813 33.2161C89.0813 27.8522 86.0239 25.3555 81.8767 25.3555H75.8569V41.119ZM85.4103 16.4581C85.4103 14.247 86.6798 13.2631 88.1821 13.2631C89.3141 13.2631 90.3509 13.9719 90.3509 15.8022V22.7635H92.9429V15.5588C92.9429 12.2686 91.1972 11.0414 88.8909 11.0414C87.3357 11.0414 86.0239 11.8877 85.4103 12.787V7H82.8183V22.7635H85.4103V16.4581ZM130.68 41.5421C134.446 41.5421 138.445 39.0983 137.694 32.7929H130.585V35.1944H135.049C134.87 37.9874 132.796 39.0983 130.68 39.0983C127.993 39.0983 125.972 36.8871 125.972 33.2584C125.972 29.6296 127.898 27.3762 130.68 27.3762C132.849 27.3762 134.214 28.3177 134.637 30.1057H137.409C136.985 26.9107 134.393 24.9323 130.68 24.9323C126.353 24.9323 123.052 28.1273 123.052 33.2161C123.052 38.3048 126.258 41.5421 130.68 41.5421ZM76.6504 20.5524C76.6504 22.298 77.7824 22.8587 79.6656 22.8587C80.184 22.8587 80.7447 22.8164 81.2208 22.7635V20.7851H80.5119C79.6127 20.7851 79.2424 20.6476 79.2424 19.8012V13.3054H81.2208V11.3693H79.2424V7.9839H76.6504V11.3693H75V13.2948H76.6504V20.5524ZM102.306 27.8417V25.3449H90.827V41.1084H102.496V38.6222H93.6517V34.2952H101.597V31.8513H93.6411V27.8522H102.306V27.8417ZM99.9465 13.2525C101.354 13.2525 102.538 14.1518 102.718 15.8868H96.9737C97.217 14.1941 98.5394 13.2525 99.9465 13.2525ZM99.9042 23.1867C102.824 23.1867 104.982 21.3035 105.226 19.2828H102.581C102.295 20.4148 101.216 20.9755 99.9888 20.9755C98.2432 20.9755 96.9737 19.706 96.9737 17.7805H105.448V17.1246C105.448 13.4958 103.279 11.052 99.9465 11.052C96.614 11.052 94.2547 13.5487 94.2547 17.1669C94.2547 21.1131 96.9419 23.1867 99.9042 23.1867ZM103.998 29.6296C103.998 30.952 104.464 32.0311 105.406 32.8352C106.157 33.4488 107.236 33.872 108.791 34.1576L111.002 34.5808C112.695 34.9088 113.774 35.332 113.774 36.7919C113.774 37.871 112.79 39.1406 110.24 39.1406C108.78 39.1406 107.839 38.7174 107.183 38.1038C106.569 37.5431 106.284 36.6967 106.284 35.8927H103.522V36.1254C103.522 37.8181 104.231 39.1829 105.448 40.1245C106.58 41.0237 108.273 41.5316 110.103 41.5316C114.335 41.5316 116.694 39.4156 116.694 36.4957C116.694 33.7662 114.811 32.5919 112.272 32.0735L108.981 31.4175C107.384 31.0896 106.866 30.3807 106.866 29.4392C106.866 28.3072 107.945 27.3233 110.113 27.3233C112.462 27.3233 113.552 28.3601 113.689 30.0951H116.377C116.377 27.4608 114.589 24.9217 110.113 24.9217C106.633 24.9217 103.998 26.8049 103.998 29.6296ZM83.5271 50.905L79.4328 43.7004H75.8569V59.4638H78.5865V47.4667L82.3528 54.0048H84.5216L88.2879 47.4667V59.4638H91.0174V43.7004H87.5262L83.5271 50.905ZM124.798 52.6506H132.754V50.2068H124.798V46.2077H133.462V43.7004H121.973V59.4638H133.642V56.9671H124.798V52.6506ZM145.174 54.0154C145.174 56.4593 143.481 57.4008 141.598 57.4008C139.715 57.4008 138.117 56.4593 138.117 54.0154V43.7004H135.293V54.1C135.293 57.4855 137.409 59.887 141.598 59.887C145.788 59.887 147.903 57.4855 147.903 54.1V43.7004H145.174V54.0154ZM161.509 43.7004L157.51 50.905L153.415 43.7004H149.84V59.4638H152.569V47.4667L156.335 54.0048H158.504L162.27 47.4667V59.4638H165V43.7004H161.509ZM152.379 25.3449H149.649V37.1622L142.963 25.3449H139.482V41.1084H142.212V29.3016L148.898 41.119H152.379V25.3449ZM102.866 54.0154C102.866 56.4593 101.174 57.4008 99.2906 57.4008C97.4074 57.4008 95.8099 56.4593 95.8099 54.0154V43.7004H92.9852V54.1C92.9852 57.4855 95.1011 59.887 99.2906 59.887C103.48 59.887 105.596 57.4855 105.596 54.1V43.7004H102.866V54.0154ZM115.805 50.4289L112.515 49.773C110.917 49.445 110.399 48.7362 110.399 47.7946C110.399 46.6626 111.478 45.6787 113.647 45.6787C115.996 45.6787 117.085 46.7155 117.223 48.4506H119.899C119.899 45.8163 118.112 43.2772 113.636 43.2772C110.166 43.2772 107.521 45.1603 107.521 47.9851C107.521 49.3075 107.987 50.3866 108.929 51.1801C109.68 51.7937 110.759 52.2169 112.314 52.5025L114.525 52.9257C116.218 53.2537 117.297 53.6768 117.297 55.1368C117.297 56.2159 116.313 57.4855 113.763 57.4855C112.303 57.4855 111.362 57.0623 110.706 56.4487C110.092 55.888 109.807 55.0416 109.807 54.2376H107.056V54.4703C107.056 56.163 107.765 57.5278 108.981 58.4694C110.113 59.3686 111.806 59.8764 113.636 59.8764C117.868 59.8764 120.227 57.7605 120.227 54.8406C120.238 52.1322 118.355 50.9473 115.805 50.4289ZM118.45 41.119H121.275V25.3555H118.45V41.119Z" fill="#6E6C6D"/>
</svg>
