<svg width="147" height="95" viewBox="0 0 147 95" fill="none" xmlns="http://www.w3.org/2000/svg">
<path d="M18.2969 11.5596H122.808" stroke="#BFEAFF" stroke-width="1.9411" stroke-miterlimit="10"/>
<path d="M116.454 86.6012H24.6821C21.1452 86.6012 18.2969 83.832 18.2969 80.3934V7.48176C18.2969 4.0431 21.1452 1.27393 24.6821 1.27393H116.454C119.991 1.27393 122.839 4.0431 122.839 7.48176V80.3934C122.808 83.832 119.959 86.6012 116.454 86.6012Z" stroke="#BFEAFF" stroke-width="1.9411" stroke-miterlimit="10"/>
<path d="M28.6258 6.53817C28.6258 7.32937 27.9685 7.9684 27.1547 7.9684C26.3409 7.9684 25.6836 7.32937 25.6836 6.53817C25.6836 5.74698 26.3409 5.10793 27.1547 5.10793C27.9685 5.0775 28.6258 5.74698 28.6258 6.53817Z" stroke="#BFEAFF" stroke-width="1.9411" stroke-miterlimit="10"/>
<path d="M34.3543 6.53864C34.3543 7.32983 33.697 7.96887 32.8832 7.96887C32.0694 7.96887 31.4121 7.32983 31.4121 6.53864C31.4121 5.74744 32.0694 5.1084 32.8832 5.1084C33.697 5.1084 34.3543 5.74744 34.3543 6.53864Z" stroke="#BFEAFF" stroke-width="1.9411" stroke-miterlimit="10"/>
<path d="M40.0848 6.53817C40.0848 7.32937 39.4275 7.9684 38.6137 7.9684C37.7999 7.9684 37.1426 7.32937 37.1426 6.53817C37.1426 5.74698 37.7999 5.10793 38.6137 5.10793C39.3962 5.0775 40.0848 5.74698 40.0848 6.53817Z" stroke="#BFEAFF" stroke-width="1.9411" stroke-miterlimit="10"/>
<path d="M67.8143 92.8087C83.2139 91.1959 132.198 95.1518 128.192 87.7876C127.566 86.6921 124.342 85.2315 127.003 84.1055C128.912 83.2535 132.48 82.7057 135.923 82.2797C144.906 81.1842 148.224 79.5105 145.877 77.3804C139.648 71.5986 106.532 74.0635 89.1609 76.3762C76.7974 78.0803 62.2116 78.7802 49.3786 78.0499C39.3313 77.4717 33.0087 75.7676 21.2399 76.6805C10.7857 77.4717 9.28333 79.754 12.382 81.732C14.1348 82.9492 15.4181 83.4665 11.9751 84.8055C9.09553 86.114 4.02493 87.2095 3.64933 88.6701C3.58673 90.2221 6.81063 91.7132 12.9767 92.1088C18.016 92.4435 22.5858 92.1088 27.5625 92.2305C38.6427 92.5957 45.8417 96.2473 59.5511 94.4824C62.9628 94.0259 64.8721 93.113 68.5968 92.7478" fill="#F3F4F5"/>
<path opacity="0.5" d="M123.309 82.2196C128.912 82.2196 133.45 81.7327 133.45 81.0937C133.45 80.4547 128.912 79.9678 123.309 79.9678C117.706 79.9678 113.168 80.4547 113.168 81.0937C113.168 81.7327 117.706 82.2196 123.309 82.2196Z" fill="#A3A8AF"/>
<path d="M134.577 63.5955C134.202 61.4958 133.138 59.6396 132.386 57.6616C131.447 55.1054 131.886 53.0665 132.574 50.5408C133.607 46.737 133.638 42.4767 131.604 38.9772C131.041 38.0339 130.289 37.1818 129.757 36.2384C129.131 35.2038 128.881 33.8344 128.724 32.6476C128.599 31.5217 128.818 30.3654 128.756 29.2394C128.693 28.2656 128.537 27.2919 128.286 26.3181C127.566 23.6706 125.594 20.232 122.308 20.2624C118.427 20.2928 117.456 24.827 117.582 27.7788C117.675 29.8176 118.02 32.0086 117.269 33.9866C116.455 36.1167 114.295 37.4253 113.074 39.3119C111.259 42.0811 110.883 45.7024 112.167 48.7758C112.887 50.5104 114.452 52.0623 114.514 53.9795C114.577 56.2313 112.041 57.5398 110.915 59.2135C108.974 62.0131 108.88 65.6648 110.226 68.7383C113.575 75.5547 122.84 77.9587 129.413 74.1245C129.507 74.1245 129.632 74.1245 129.726 74.0636C133.044 71.5683 135.297 67.7341 134.577 63.5955Z" fill="url(#paint0_linear)"/>
<path d="M122.589 80.7589C122.652 77.4724 122.683 74.1555 122.746 70.869C120.68 68.6476 118.959 66.1827 117.581 63.5048C117.394 63.1396 117.988 62.9266 118.176 63.2918C119.397 65.7262 120.931 67.9477 122.777 69.9865C122.809 67.1869 122.84 64.4177 122.871 61.6181C122.84 61.6181 122.809 61.5877 122.809 61.5572C120.68 59.275 118.896 56.7492 117.394 54.0105C117.206 53.6757 117.801 53.4323 117.957 53.7975C119.334 56.2928 120.962 58.6055 122.871 60.7356C122.903 58.1186 122.934 55.5016 122.965 52.8845C121.557 51.2109 120.305 49.4155 119.209 47.5288C119.021 47.194 119.522 46.8289 119.71 47.1636C120.68 48.8373 121.776 50.4197 122.965 51.9108C122.996 49.2937 123.028 46.7071 123.028 44.0901C122.996 44.0597 122.965 44.0597 122.934 43.9988C121.995 42.9337 121.087 41.8078 120.273 40.6514C120.054 40.3471 120.524 39.9515 120.774 40.2863C121.494 41.2905 122.245 42.2643 123.059 43.1772C123.059 41.4426 123.09 39.6777 123.09 37.9431C123.09 37.5475 123.716 37.4867 123.716 37.8823C123.716 40.2863 123.685 42.6903 123.654 45.1247C124.311 43.9988 125 42.9033 125.751 41.8382C125.97 41.5035 126.471 41.8991 126.252 42.2034C125.313 43.5424 124.468 44.9422 123.654 46.3724C123.622 48.5025 123.622 50.6327 123.591 52.7324C123.591 52.7628 123.591 52.7932 123.591 52.7932C123.591 53.98 123.56 55.1668 123.56 56.3536C125.375 54.3756 126.971 52.2151 128.286 49.8719C128.474 49.5372 129.037 49.7806 128.849 50.1154C127.378 52.702 125.594 55.106 123.528 57.2665C123.497 60.2792 123.466 63.3222 123.403 66.3348C124.874 64.7829 126.377 63.2614 127.848 61.7094C128.13 61.4355 128.63 61.8007 128.349 62.0746C126.69 63.7787 125.031 65.5132 123.403 67.2173C123.341 71.7515 123.278 76.2856 123.184 80.8198C123.216 81.2154 122.589 81.1241 122.589 80.7589Z" fill="#49A6D6"/>
<path d="M28.1871 62.2876C27.8741 60.5226 26.9664 58.9402 26.3404 57.2665C25.5266 55.106 25.9335 53.3714 26.4969 51.2413C27.3733 48.0156 27.4046 44.4248 25.6831 41.4731C25.2136 40.6819 24.5876 39.982 24.1181 39.1603C23.586 38.2779 23.3669 37.1215 23.2417 36.1173C23.1478 35.1739 23.3356 34.2002 23.273 33.2264C23.2417 32.4048 23.1165 31.5831 22.8661 30.7615C22.2401 28.5096 20.5812 25.6187 17.8268 25.6492C14.5716 25.6796 13.7265 29.5139 13.8204 32.0092C13.883 33.7437 14.196 35.5999 13.57 37.2432C12.8814 39.069 11.066 40.1341 10.0331 41.7469C8.49936 44.0901 8.18636 47.1636 9.25056 49.7502C9.84526 51.2108 11.1599 52.5194 11.2225 54.1626C11.2851 56.0493 9.15666 57.1752 8.15506 58.575C6.52746 60.9486 6.43356 64.0525 7.56036 66.6391C10.4087 72.4209 18.2337 74.4293 23.7738 71.1733C23.8677 71.2037 23.9616 71.1733 24.0242 71.1124C26.8725 69.0127 28.7818 65.7566 28.1871 62.2876Z" fill="url(#paint1_linear)"/>
<path d="M18.0467 76.7723C18.078 73.9727 18.1406 71.2035 18.1719 68.4039C16.4191 66.5172 14.948 64.4479 13.8212 62.1656C13.6647 61.8613 14.1655 61.6787 14.322 61.983C15.3549 64.0219 16.6695 65.939 18.2032 67.6431C18.2345 65.2695 18.2658 62.9264 18.2971 60.5528C18.2658 60.5528 18.2658 60.5224 18.2345 60.4919C16.4191 58.5444 14.9167 56.4142 13.6334 54.1015C13.4769 53.7972 13.9777 53.6146 14.1342 53.9189C15.2923 56.0491 16.6695 57.9966 18.2971 59.792C18.3284 57.5706 18.3597 55.3492 18.3597 53.1582C17.1703 51.7279 16.1061 50.2064 15.1671 48.624C15.0106 48.3501 15.4175 48.0154 15.574 48.3197C16.3878 49.7195 17.3268 51.0585 18.3284 52.367C18.3597 50.1455 18.3597 47.9545 18.391 45.7331C18.3597 45.7331 18.3284 45.7027 18.2971 45.6722C17.4833 44.7593 16.7321 43.816 16.0435 42.8422C15.8557 42.5683 16.2626 42.264 16.4504 42.5379C17.0764 43.39 17.7024 44.2116 18.391 45.0028C18.391 43.5117 18.4223 42.051 18.4223 40.5599C18.4223 40.2252 18.9544 40.1643 18.9544 40.4991C18.9544 42.5379 18.9231 44.5768 18.8918 46.6156C19.4552 45.6723 20.0186 44.7289 20.6446 43.816C20.8324 43.5421 21.2393 43.8464 21.0515 44.1203C20.269 45.2767 19.5491 46.433 18.8605 47.6502C18.8292 49.4456 18.8292 51.241 18.7979 53.0364C18.7979 53.0669 18.7979 53.0669 18.7979 53.0973C18.7979 54.1015 18.7666 55.1057 18.7666 56.1099C20.3003 54.4362 21.6775 52.6104 22.773 50.602C22.9295 50.2977 23.4303 50.5411 23.2425 50.815C21.9905 53.006 20.4881 55.0449 18.7353 56.8707C18.704 59.4269 18.6727 61.983 18.6414 64.5696C19.8934 63.2611 21.1454 61.9526 22.3974 60.6441C22.6165 60.4006 23.0547 60.7049 22.8043 60.9484C21.3958 62.4091 20.0186 63.8697 18.6101 65.3C18.5475 69.1342 18.4849 72.9685 18.4223 76.8331C18.5788 77.1679 18.0467 77.107 18.0467 76.7723Z" fill="#49A6D6"/>
<path opacity="0.3" d="M72.0776 87.14C85.3882 87.14 96.1786 86.4043 96.1786 85.4968C96.1786 84.5892 85.3882 83.8535 72.0776 83.8535C58.7669 83.8535 47.9766 84.5892 47.9766 85.4968C47.9766 86.4043 58.7669 87.14 72.0776 87.14Z" fill="#A3A8AF"/>
<g opacity="0.8">
<path opacity="0.5" d="M72.0109 46.4004C72.0109 46.4004 71.7605 43.6182 72.7979 42.4706C73.871 41.3229 75.6953 40.5231 76.6611 41.2534C77.6269 41.9837 78.7358 45.2179 78.6642 45.7048C78.6285 46.1917 72.0109 46.4004 72.0109 46.4004Z" fill="#CBCFD3"/>
<path opacity="0.5" d="M71.1523 45.7047L72.2255 58.6765L80.9177 57.8071L79.5942 44.8701L71.1523 45.7047Z" fill="#747C87"/>
<g opacity="0.5">
<path opacity="0.5" d="M66.1465 41.0112C66.1465 41.0112 72.0486 26.544 77.3427 26.7179C77.3427 26.7179 79.632 27.4482 77.2353 29.6739C74.8029 31.9344 66.1465 41.0112 66.1465 41.0112Z" fill="#747C87"/>
<path opacity="0.5" d="M66.4316 41.2895C66.4316 41.2895 76.0539 33.8473 78.2001 35.447C78.2001 35.447 79.4163 36.2121 77.9855 36.8729C76.5547 37.5336 70.9745 38.4031 66.4316 41.2895Z" fill="#747C87"/>
<path opacity="0.5" d="M65.6816 40.3154C65.7532 40.2458 69.2945 32.2471 67.8994 32.2124C66.5044 32.1428 65.6816 40.3154 65.6816 40.3154Z" fill="#747C87"/>
<path opacity="0.5" d="M58.8477 45.9147C58.8834 45.7755 64.9286 38.4028 64.9286 38.4028C64.9286 38.4028 66.8603 38.4028 67.2537 39.5157C67.6472 40.6286 68.8276 40.2808 69.3642 40.8024L62.0312 49.1141L58.8477 45.9147Z" fill="#747C87"/>
</g>
<g opacity="0.5">
<g opacity="0.5">
<path opacity="0.5" d="M83.8856 60.0328L80.5947 59.6155C79.9866 59.5459 79.5573 58.9895 79.6289 58.3983L80.7735 49.9475C80.8451 49.3563 81.4174 48.939 82.0255 49.0085L85.3164 49.4259C85.9245 49.4954 86.3537 50.0519 86.2822 50.6431L85.1375 59.0938C85.066 59.6851 84.4937 60.1024 83.8856 60.0328Z" fill="#CBCFD3"/>
<path opacity="0.5" d="M84.0289 51.3735L82.7411 51.1996C82.4907 51.1648 82.3477 50.9562 82.3477 50.7127L82.7769 47.4089C82.8127 47.1655 83.0273 47.0264 83.2777 47.0264L84.5654 47.2003C84.8158 47.235 84.9589 47.4437 84.9589 47.6871L84.5296 50.9909C84.4939 51.2344 84.2793 51.4083 84.0289 51.3735Z" fill="#CBCFD3"/>
</g>
<path opacity="0.5" d="M85.27 51.0017L81.6875 50.5469L80.9695 55.892L84.552 56.3469L85.27 51.0017Z" fill="#747C87"/>
</g>
<g opacity="0.5">
<g opacity="0.5">
<g opacity="0.5">
<g opacity="0.5">
<path opacity="0.5" d="M78.7338 59.2677L74.1194 59.0242C73.8333 59.0242 73.5829 58.746 73.6187 58.4678L73.6902 57.042C73.6902 56.7637 73.9764 56.5203 74.2625 56.5551L78.8769 56.7985C79.1631 56.7985 79.4135 57.0767 79.3777 57.3549L79.3062 58.7808C79.2704 59.059 79.02 59.3025 78.7338 59.2677Z" fill="#CBCFD3"/>
</g>
</g>
<path opacity="0.5" d="M77.3755 57.1814L75.6585 57.077C75.5512 57.077 75.4439 56.9727 75.4797 56.8684L75.5154 56.3467C75.5154 56.2424 75.6228 56.1381 75.7301 56.1728L77.4471 56.2772C77.5544 56.2772 77.6617 56.3815 77.6259 56.4858L77.5901 57.0075C77.5901 57.1118 77.5186 57.2161 77.3755 57.1814Z" fill="#A3A8AF"/>
</g>
<path opacity="0.5" d="M79.3657 57.5379L73.6504 57.2437L73.5936 58.2855L79.3089 58.5798L79.3657 57.5379Z" fill="#747C87"/>
</g>
<path opacity="0.5" d="M57.999 30.9668L41.8828 35.3726L48.2543 57.4022L64.3704 52.9964L57.999 30.9668Z" fill="#CBCFD3"/>
<path opacity="0.5" d="M71.3925 47.1831L61.7461 46.7295L61.1758 58.1921L70.8222 58.6457L71.3925 47.1831Z" fill="#CBCFD3"/>
<path opacity="0.5" d="M60.7519 55.7269L54.2852 55.4229L54.1746 57.6459L60.6413 57.9499L60.7519 55.7269Z" fill="#CBCFD3"/>
<path opacity="0.5" d="M92.2203 74.8481C89.5375 74.8481 87.3555 76.9695 87.3555 79.5778C87.3555 82.1861 89.5375 84.3075 92.2203 84.3075C94.903 84.3075 97.085 82.1861 97.085 79.5778C97.085 76.9348 94.903 74.8481 92.2203 74.8481Z" fill="#747C87"/>
<path opacity="0.5" d="M92.2203 77.3867C90.9684 77.3867 89.9668 78.3605 89.9668 79.5777C89.9668 80.7948 90.9684 81.7686 92.2203 81.7686C93.4723 81.7686 94.4739 80.7948 94.4739 79.5777C94.4739 78.3605 93.4723 77.3867 92.2203 77.3867Z" fill="#4F5459"/>
<path opacity="0.5" d="M53.4449 74.8481C50.7621 74.8481 48.5801 76.9695 48.5801 79.5778C48.5801 82.1861 50.7621 84.3075 53.4449 84.3075C56.1277 84.3075 58.3097 82.1861 58.3097 79.5778C58.3097 76.9348 56.1277 74.8481 53.4449 74.8481Z" fill="#747C87"/>
<path opacity="0.5" d="M53.4449 77.3867C52.193 77.3867 51.1914 78.3605 51.1914 79.5777C51.1914 80.7948 52.193 81.7686 53.4449 81.7686C54.6969 81.7686 55.6985 80.7948 55.6985 79.5777C55.6985 78.3605 54.6969 77.3867 53.4449 77.3867Z" fill="#4F5459"/>
<path opacity="0.5" d="M101.913 24.5257C101.627 24.2475 101.162 24.2127 100.876 24.4909L94.6516 30.09C94.5443 30.1596 94.5085 30.2639 94.437 30.403L93.65 32.8026L41.4251 35.2022C41.2462 35.2022 41.0674 35.3065 40.9243 35.4456C40.7812 35.5847 40.7097 35.7586 40.7454 35.9673L41.8186 57.3203C41.8543 57.6681 42.1405 57.981 42.4982 57.981L85.3871 61.0066H85.4228C85.7448 61.0066 86.0309 60.798 86.1025 60.5198L94.8662 33.7068V33.672L95.7605 30.9942L101.841 25.4994C102.163 25.256 102.163 24.8039 101.913 24.5257ZM87.3187 52.2081L82.5254 52.0342L84.5286 44.1746L89.9657 44.1399L87.3187 52.2081ZM81.2377 51.9994L75.8363 51.7908L77.6606 44.2442L83.2408 44.2094L81.2377 51.9994ZM74.1193 58.8157L75.5144 53.008L80.88 53.2166L79.3418 59.1982L74.1193 58.8157ZM67.8953 58.3636L68.9684 52.7645L74.2267 52.9732L72.8316 58.7461L67.8953 58.3636ZM61.0273 57.8767L61.85 52.4863L67.6806 52.695L66.6075 58.2593L61.0273 57.8767ZM55.304 57.4942L55.6975 52.2777L60.5981 52.4515L59.7754 57.8072L55.304 57.4942ZM48.3288 57.0073L48.6507 52.0342L54.4098 52.2429L54.0163 57.4246L48.3288 57.0073ZM42.6413 44.5224L47.8995 44.4876L47.4703 50.7475L42.9274 50.5736L42.6413 44.5224ZM49.1873 44.4529L55.0536 44.4181L54.5529 50.9909L48.7938 50.7822L49.1873 44.4529ZM55.6975 36.0021L55.1252 43.2009L49.2588 43.2357L49.7238 36.2803L55.6975 36.0021ZM63.2093 35.6543L62.0289 43.1313L56.3772 43.1661L56.9495 35.9325L63.2093 35.6543ZM71.0431 35.2717L69.5407 43.0618L63.3166 43.0965L64.4971 35.55L71.0431 35.2717ZM78.5907 34.924L76.659 42.9922L70.8285 43.027L72.3308 35.2022L78.5907 34.924ZM63.1378 44.3485L69.2903 44.3137L67.931 51.5126L62.0647 51.3039L63.1378 44.3485ZM60.7769 51.2343L55.7691 51.0605L56.2698 44.4181L61.8143 44.3833L60.7769 51.2343ZM70.5781 44.279L76.3371 44.2442L74.5128 51.756L69.183 51.5473L70.5781 44.279ZM77.9468 42.9922L79.9142 34.8544L85.6732 34.5762L83.5628 42.9227L77.9468 42.9922ZM48.4719 36.3151L48.0069 43.2357L42.6055 43.2704L42.2836 36.5933L48.4719 36.3151ZM42.999 51.7908L47.3988 51.9646L47.0768 56.903L43.2494 56.6248L42.999 51.7908ZM84.922 59.5808L80.7011 59.2678L82.2392 53.2514L86.961 53.4253L84.922 59.5808ZM90.3592 42.8879L84.8147 42.9227L86.961 34.5414L93.185 34.2632L90.3592 42.8879Z" fill="#A3A8AF"/>
<g opacity="0.5">
<path opacity="0.5" d="M99.2649 27.7605C99.0145 27.7605 98.7642 27.6561 98.6211 27.4822C98.2991 27.1345 98.3349 26.578 98.6926 26.2651L101.876 23.5524C102.234 23.2394 102.806 23.2742 103.128 23.622C103.45 23.9698 103.414 24.5262 103.057 24.8392L99.873 27.5518C99.6584 27.6909 99.4796 27.7605 99.2649 27.7605Z" fill="#4F5459"/>
</g>
<g opacity="0.5">
<path opacity="0.5" d="M42.5354 58.155C42.0704 58.155 41.6769 57.8072 41.6769 57.3551L40.6038 36.0021C40.5681 35.55 40.9615 35.1327 41.4265 35.0979C41.9273 35.0631 42.3208 35.4457 42.3566 35.8978L43.4297 57.2508C43.4655 57.7029 43.072 58.1202 42.607 58.155C42.5712 58.155 42.5712 58.155 42.5354 58.155Z" fill="#4F5459"/>
</g>
<path opacity="0.5" d="M92.3641 79.23L91.3983 73.4918C91.7918 73.4571 92.0779 73.1789 92.0779 72.7963V65.0411C92.0779 64.8324 91.9706 64.6237 91.8276 64.4846L85.8897 59.755C85.5677 59.5115 85.1027 59.5463 84.8523 59.8593C84.6019 60.1723 84.6377 60.6244 84.9596 60.8678L90.6114 65.3888V72.1008L48.8314 72.8311L47.4721 69.1447C47.329 68.7622 46.9356 68.5883 46.5421 68.7274C46.1486 68.8665 45.9698 69.2491 46.1128 69.6316L47.4006 73.1441L41.7846 75.2655C41.4269 75.4046 41.2123 75.8219 41.3554 76.1697C41.4627 76.4479 41.7488 76.6218 42.035 76.6218C42.1065 76.6218 42.2139 76.6218 42.2854 76.587L48.4021 74.2569H49.2607L53.1954 79.7517C53.41 80.0299 53.7677 79.856 53.7677 79.4735L53.5173 74.2221L86.927 73.6309L91.8633 79.5082C92.1137 79.6821 92.4357 79.5082 92.3641 79.23Z" fill="#A3A8AF"/>
</g>
<defs>
<linearGradient id="paint0_linear" x1="121.145" y1="40.6535" x2="123.808" y2="116.735" gradientUnits="userSpaceOnUse">
<stop stop-color="#8FD8FC"/>
<stop offset="1" stop-color="#8FD8FC" stop-opacity="0"/>
</linearGradient>
<linearGradient id="paint1_linear" x1="17.571" y1="56.3828" x2="17.571" y2="112.984" gradientUnits="userSpaceOnUse">
<stop stop-color="#BFEAFF"/>
<stop offset="1" stop-color="#BFEAFF" stop-opacity="0"/>
</linearGradient>
</defs>
</svg>
