<?xml version="1.0" encoding="utf-8"?>
<!-- Generator: Adobe Illustrator 27.5.0, SVG Export Plug-In . SVG Version: 6.00 Build 0)  -->
<svg version="1.1" xmlns="http://www.w3.org/2000/svg" width="500" height="500" xmlns:xlink="http://www.w3.org/1999/xlink" x="0px" y="0px"
	 viewBox="0 0 500 500" style="enable-background:new 0 0 500 500;" xml:space="preserve">
<g id="BACKGROUND_2">
	
	<g>
		
			<linearGradient id="XMLID_00000018195000879785177050000002847651601659775376_" gradientUnits="userSpaceOnUse" x1="196.048" y1="189.3193" x2="123.0701" y2="399.7392">
			<stop  offset="0" style="stop-color:#FFFFFF"/>
			<stop  offset="0.9355" style="stop-color:#E2E0F7"/>
		</linearGradient>
			<circle id="XMLID_81_" style="fill:url(#XMLID_00000018195000879785177050000002847651601659775376_);" cx="163.989" cy="281.756" r="96.35"/>
			<linearGradient id="XMLID_00000112608714738764971510000001928783348037568699_" gradientUnits="userSpaceOnUse" x1="352.3241" y1="56.1028" x2="312.411" y2="134.755">
			<stop  offset="0" style="stop-color:#FFFFFF"/>
			<stop  offset="0.9355" style="stop-color:#E2E0F7"/>
		</linearGradient>
		<circle id="XMLID_83_" style="fill:url(#XMLID_00000112608714738764971510000001928783348037568699_);" cx="323.523" cy="112.858" r="54.372"/>
		<g>
			<g id="XMLID_85_">
				<defs>
					<path id="XMLID_82_" d="M194.992,324.605c0,0,27.294-16.228,51.047,3.984s40.492,60.673,77.203,60.731
						c37.117,0.059,50.218-36.026,48.468-58.11c-1.728-21.804,3.432-23.281,9.355-21.898c9.559,2.231,29.452,13.551,42.503-0.896
						c13.052-14.447,10.863-36.353-5.756-54.195c-16.619-17.842-33.654-20.468-31.297-35.001c3.042-18.758,30.89-31.039,21.06-54.49
						c-12.217-29.145-48.274-6.417-78.422-32.29c-30.148-25.874-62.595-22.222-78.354-2.019
						c-20.569,26.369-38.623,27.637-67.926,24.356c-30.054-3.364-69.307-24.602-95.435-15.673
						c-43.449,14.847-38.646,75.327,20.302,103.578c20.448,9.8,23.983,22.418,28.423,52.386
						C140.602,325.037,167.007,334.216,194.992,324.605z"/>
				</defs>
				<clipPath id="XMLID_00000129174423264116136180000016672526909577888934_">
					<use xlink:href="#XMLID_82_"  style="overflow:visible;"/>
				</clipPath>
				
				
					<path id="XMLID_84_" style="opacity:0.1;clip-path:url(#XMLID_00000129174423264116136180000016672526909577888934_);fill:#FFFFFF;" d="
					M56.009,245.477c0,0,18.776-46.917,64.543-60.479c45.766-13.562,75.542-1.08,128.228-26.656
					c52.686-25.576,89.876-38.197,116.185-26.453c26.309,11.744,54.936,1.477,68.042,18.391
					c13.105,16.914-23.134,36.773-29.796,58.577c-6.662,21.805,1.907,46.445-27.079,61.902
					c-28.986,15.457-96.552,22.355-121.144,41.541c-24.592,19.186-33.594,62.303-28.534,74.153l-63.941,34.537L56.009,245.477z"/>
			</g>
			
			<path id="XMLID_186_" style="fill:#7F45E0;" d="M320.409,92.544l9.314-1.697l-9.314-1.697c-2.203-0.402-3.928-2.126-4.329-4.329
				l-1.687-9.257l-1.69,9.275c-0.402,2.203-2.126,3.928-4.329,4.329l-9.218,1.68l9.218,1.68c2.203,0.401,3.928,2.126,4.329,4.329
				l1.69,9.275l1.687-9.257C316.482,94.669,318.206,92.945,320.409,92.544z"/>
			<path id="XMLID_189_" style="fill:#7F45E0;" d="M179.204,344.016l3.466-0.632l-3.466-0.632c-0.82-0.149-1.462-0.791-1.611-1.611
				l-0.628-3.445l-0.629,3.452c-0.149,0.82-0.791,1.462-1.611,1.611l-3.43,0.625l3.43,0.625c0.82,0.149,1.462,0.791,1.611,1.611
				l0.629,3.452l0.628-3.445C177.742,344.807,178.384,344.165,179.204,344.016z"/>
			<path id="XMLID_2887_" style="fill:#7F45E0;" d="M266.742,104.349l3.466-0.632l-3.466-0.632c-0.82-0.149-1.462-0.791-1.611-1.611
				l-0.628-3.445l-0.629,3.452c-0.149,0.82-0.791,1.462-1.611,1.611l-3.43,0.625l3.43,0.625c0.82,0.149,1.462,0.791,1.611,1.611
				l0.629,3.452l0.628-3.445C265.28,105.14,265.922,104.498,266.742,104.349z"/>
			<path id="XMLID_184_" style="fill:#E2E0F7;" d="M393.699,131.372l7.152-1.303l-7.152-1.303c-1.692-0.308-3.016-1.632-3.324-3.324
				l-1.295-7.108l-1.298,7.122c-0.308,1.692-1.632,3.016-3.324,3.324l-7.078,1.29l7.078,1.29c1.692,0.308,3.016,1.632,3.324,3.324
				l1.298,7.122l1.295-7.108C390.683,133.004,392.007,131.68,393.699,131.372z"/>
			<path id="XMLID_187_" style="fill:#E2E0F7;" d="M185.116,406.868l8.634-1.573l-8.634-1.573c-2.042-0.372-3.641-1.971-4.013-4.013
				l-1.564-8.582l-1.567,8.598c-0.372,2.043-1.971,3.641-4.013,4.013l-8.545,1.557l8.545,1.557c2.042,0.372,3.641,1.971,4.013,4.013
				l1.567,8.598l1.564-8.582C181.475,408.838,183.074,407.24,185.116,406.868z"/>
			<path id="XMLID_97_" style="fill:#7F45E0;" d="M137.226,341.881l9.314-1.697l-9.314-1.697c-2.203-0.402-3.928-2.126-4.329-4.329
				l-1.687-9.257l-1.69,9.275c-0.402,2.203-2.126,3.928-4.329,4.329l-9.218,1.68l9.218,1.68c2.203,0.401,3.927,2.126,4.329,4.329
				l1.69,9.275l1.687-9.257C133.298,344.006,135.023,342.282,137.226,341.881z"/>
			<path id="XMLID_98_" style="fill:#FFBF0F;" d="M335.187,168.242l7.452-1.358l-7.452-1.358c-1.763-0.321-3.142-1.701-3.464-3.464
				l-1.35-7.407l-1.352,7.421c-0.321,1.763-1.701,3.142-3.464,3.464l-7.375,1.344l7.375,1.344c1.763,0.321,3.142,1.701,3.464,3.464
				l1.352,7.421l1.35-7.407C332.044,169.943,333.424,168.563,335.187,168.242z"/>
			<path id="XMLID_182_" style="fill:#FFBF0F;" d="M143.235,218.384l5.765-1.051l-5.765-1.051c-1.364-0.249-2.431-1.316-2.68-2.68
				l-1.044-5.73l-1.046,5.741c-0.249,1.364-1.316,2.431-2.68,2.68l-5.706,1.04l5.706,1.04c1.364,0.248,2.431,1.316,2.68,2.68
				l1.046,5.741l1.044-5.73C140.804,219.7,141.872,218.633,143.235,218.384z"/>
			<path id="XMLID_188_" style="fill:#FFBF0F;" d="M270.221,318.834l2.971-0.541l-2.971-0.541c-0.703-0.128-1.253-0.678-1.381-1.381
				l-0.538-2.953l-0.539,2.958c-0.128,0.703-0.678,1.253-1.381,1.381l-2.94,0.536l2.94,0.536c0.703,0.128,1.253,0.678,1.381,1.381
				l0.539,2.958l0.538-2.952C268.969,319.512,269.519,318.962,270.221,318.834z"/>
		</g>
	</g>
</g>


</svg>
