<?xml version="1.0"?>
<svg width="198" height="180" xmlns="http://www.w3.org/2000/svg" xmlns:svg="http://www.w3.org/2000/svg" version="1.1" xml:space="preserve">
 <g class="layer">
  <title>Layer 1</title>
  <g id="OBJECTS">
   <g id="svg_1">
    <linearGradient id="SVGID_00000026134547979734407750000011538629087740886678_" x1="0.11" x2="0.92" y1="0.84" y2="0.34">
     <stop offset="0" stop-color="#1857BD"/>
     <stop offset="1" stop-color="#00B4C6"/>
    </linearGradient>
    <path d="m107.43,14.38c-0.05,0.06 -0.11,0.11 -0.16,0.17c-15.9,17.75 -37.92,28.62 -61.21,30.25c-0.12,0.01 -0.23,0.02 -0.35,0.03c-12.58,0.82 -24.94,6.9 -33.56,17.76c-15.89,20 -13.14,48.63 6.14,63.93c6.55,5.21 14.19,8.2 22.03,9.1c0.12,0.02 0.24,0.03 0.36,0.05c14.88,2.21 28.83,7.85 41.19,16.64c14.57,10.36 30.31,21.4 49.56,20.61c18.66,-0.77 37.12,-10.31 48.97,-25.22c10.9,-13.73 16.08,-31.42 14.17,-48.52c-2.05,-18.37 -13.7,-30.87 -24.27,-44.73c-5.1,-6.68 -9.19,-14.14 -12.12,-22.07c-4.24,-11.51 -7.61,-22.48 -20.32,-26.6c-10.6,-3.44 -22.78,0.01 -30.43,8.6z" fill="url(#SVGID_00000026134547979734407750000011538629087740886678_)" id="svg_2" opacity="0.2"/>
    <linearGradient id="SVGID_00000176726842597092793400000011926355970301359767_" x1="0.33" x2="0.69" y1="0.09" y2="0.95">
     <stop offset="0" stop-color="#00B4C6"/>
     <stop offset="1" stop-color="#1857BD"/>
    </linearGradient>
    <path d="m23.79,130.28c3.69,4.87 7.87,9.23 11.95,12.78c14.39,12.53 31.95,14.04 49.24,6.95c13.2,-5.41 25.52,-13.03 39.48,-16.54c11.55,-2.9 23.19,-0.09 35.02,-1.9c26.65,-4.1 37,-27.53 35.85,-52.46c-1.13,-24.57 -12.69,-42.93 -36.19,-51.77c-5.36,-2.01 -11.08,-3.61 -16.97,-4.72c-2.94,-0.55 -5.93,-0.99 -8.95,-1.29c-19.51,-0.29 -45.3,-3.9 -60.1,11.81c-4.19,4.44 -7.67,9.55 -12.22,13.62c-8.64,7.71 -19.92,11.86 -29,19.08c-8.9,7.07 -15.99,16.01 -18.9,27.16c-3.32,12.74 2.49,26.3 10.79,37.28z" fill="url(#SVGID_00000176726842597092793400000011926355970301359767_)" id="svg_3"/>
    <linearGradient id="SVGID_00000012466185468106642000000010322985547530584999_" x1="0.2" x2="0.78" y1="0" y2="0.9">
     <stop offset="0" stop-color="#00B4C6"/>
     <stop offset="1" stop-color="#1857BD"/>
    </linearGradient>
    <path d="m152.23,48.59c-0.06,0 -0.12,-0.01 -0.19,-0.01c-19.74,-1.22 -38.17,-10.24 -51.24,-25.07c-0.07,-0.07 -0.14,-0.14 -0.2,-0.22c-7.02,-8.04 -17.36,-13.11 -28.86,-13.11c-21.19,0 -38.37,17.18 -38.37,38.37c0,7.2 1.99,13.95 5.46,19.72c0.05,0.09 0.1,0.17 0.15,0.27c6.24,11.22 9.78,23.63 10.45,36.67c0.78,15.37 1.73,31.9 12.18,44.45c10.13,12.16 25.86,19.51 41.66,19.51c14.55,0 28.71,-5.99 38.84,-16.43c10.88,-11.22 12.98,-25.76 16.53,-40.31c1.71,-7.01 4.45,-13.76 8.09,-19.99c5.29,-9.02 10.68,-17.16 6.8,-27.94c-3.24,-8.99 -11.76,-15.35 -21.3,-15.91z" fill="url(#SVGID_00000012466185468106642000000010322985547530584999_)" id="svg_4"/>
    <linearGradient id="SVGID_00000032617842139330484430000003300481346405674397_" x1="0" x2="1" y1="0.47" y2="0.53">
     <stop offset="0" stop-color="#1857BD"/>
     <stop offset="1" stop-color="#00B4C6"/>
    </linearGradient>
    <circle cx="165.48" cy="156.55" fill="url(#SVGID_00000032617842139330484430000003300481346405674397_)" id="svg_5" r="11.42"/>
    <linearGradient id="SVGID_00000109713343288947064160000003658293825804119973_" x1="0.77" x2="0.23" y1="0.08" y2="0.92">
     <stop offset="0" stop-color="#1857BD"/>
     <stop offset="1" stop-color="#00B4C6"/>
    </linearGradient>
    <circle cx="180.53" cy="125.6" fill="url(#SVGID_00000109713343288947064160000003658293825804119973_)" id="svg_6" r="5.16"/>
    <linearGradient id="SVGID_00000141450758289420715620000010636880782253784481_" x1="0.99" x2="0.01" y1="0.39" y2="0.61">
     <stop offset="0" stop-color="#1857BD"/>
     <stop offset="1" stop-color="#00B4C6"/>
    </linearGradient>
    <circle cx="107.89" cy="10.85" fill="url(#SVGID_00000141450758289420715620000010636880782253784481_)" id="svg_7" r="8.5"/>
    <linearGradient id="SVGID_00000014601325061879266690000009757569719424347326_" x1="0.3" x2="0.7" y1="0.96" y2="0.04">
     <stop offset="0" stop-color="#1857BD"/>
     <stop offset="1" stop-color="#00B4C6"/>
    </linearGradient>
    <circle cx="16.53" cy="80.59" fill="url(#SVGID_00000014601325061879266690000009757569719424347326_)" id="svg_8" r="4.81"/>
    <linearGradient id="SVGID_00000065794568811288907410000011802355919716146870_" x1="0.79" x2="0.21" y1="0.91" y2="0.09">
     <stop offset="0" stop-color="#1857BD"/>
     <stop offset="1" stop-color="#00B4C6"/>
    </linearGradient>
    <circle cx="25.65" cy="152.41" fill="url(#SVGID_00000065794568811288907410000011802355919716146870_)" id="svg_9" r="9.11"/>
    <linearGradient id="SVGID_00000024682115499695771240000014281706012463957902_" x1="0.33" x2="0.67" y1="0.03" y2="0.97">
     <stop offset="0" stop-color="#1857BD"/>
     <stop offset="1" stop-color="#00B4C6"/>
    </linearGradient>
    <path d="m66.51,162.16c0,1.93 -1.57,3.5 -3.51,3.5c-1.93,0 -3.5,-1.57 -3.5,-3.5c0,-1.94 1.57,-3.51 3.5,-3.51c1.94,0.01 3.51,1.57 3.51,3.51z" fill="url(#SVGID_00000024682115499695771240000014281706012463957902_)" id="svg_10"/>
    <g id="svg_11">
     <text fill="#F9FBFC" font-family="&#x27;FiraSans-Medium&#x27;" font-size="15.79px" id="svg_12" transform="matrix(1 0 0 1 72.9896 354.876)" x="-34" y="-266"/>
     <text fill="#F9FBFC" font-family="&#x27;FiraSans-Light&#x27;" font-size="11.57px" id="svg_13" transform="matrix(1 0 0 1 111.024 370.644)" x="-34" y="-266"/>
    </g>
    <path d="m139.06,23.01c0,2.02 -1.64,3.66 -3.66,3.66c-2.02,0 -3.67,-1.64 -3.67,-3.66c0,-2.02 1.64,-3.66 3.67,-3.66c2.02,0 3.66,1.63 3.66,3.66z" fill="#F9FBFC" id="svg_14"/>
    <circle cx="118.91" cy="155.06" fill="#F9FBFC" id="svg_15" r="3.66"/>
    <path d="m23.86,100.98c0,2.02 -1.64,3.66 -3.66,3.66c-2.03,0 -3.67,-1.64 -3.67,-3.66c0,-2.02 1.64,-3.66 3.67,-3.66c2.02,0 3.66,1.64 3.66,3.66z" fill="#F9FBFC" id="svg_16"/>
   </g>
  </g>
  <rect fill="#FF0000" height="0" id="svg_18" stroke="#000000" width="0" x="147.21" y="277.04"/>
  <rect fill="#FF0000" height="0" id="svg_19" stroke="#000000" width="0" x="97.21" y="421.04"/>
 </g>
</svg>